<svg width="500" height="378" viewBox="0 0 500 378" fill="none" xmlns="http://www.w3.org/2000/svg">
<g clip-path="url(#clip0_8_2)">
<path d="M342.19 56.04H256.32V60.96H342.19V56.04Z" fill="#EBEBEB"/>
<path d="M320.74 61.02L323.76 67.64H327.32L329.9 61.02H320.74Z" fill="#EBEBEB"/>
<path d="M271.07 61.02L274.09 67.64H277.64L280.23 61.02H271.07Z" fill="#EBEBEB"/>
<path d="M437.73 236.26V13.72L346.86 13.72V236.26H437.73Z" fill="#E0E0E0"/>
<path d="M432.75 18.71H351.85V231.27H432.75V18.71Z" fill="#F0F0F0"/>
<path d="M396.69 13.72H390.67V236.26H396.69V13.72Z" fill="#E0E0E0"/>
<path d="M226.97 236.26V13.72L136.1 13.72V236.26H226.97Z" fill="#E0E0E0"/>
<path d="M221.99 18.71H141.09V231.27H221.99V18.71Z" fill="#F0F0F0"/>
<path d="M185.93 13.72H179.91V236.26H185.93V13.72Z" fill="#E0E0E0"/>
<path d="M443.92 275.8H263.17C261.617 275.797 260.128 275.179 259.029 274.081C257.931 272.982 257.313 271.493 257.31 269.94V6.67C257.31 5.11583 257.927 3.62532 259.026 2.52635C260.125 1.42739 261.616 0.809998 263.17 0.809998H443.92C445.474 0.809998 446.965 1.42739 448.064 2.52635C449.163 3.62532 449.78 5.11583 449.78 6.67V269.94C449.777 271.493 449.159 272.982 448.061 274.081C446.962 275.179 445.473 275.797 443.92 275.8ZM263.17 1.06C261.682 1.06 260.255 1.65105 259.203 2.70313C258.151 3.75521 257.56 5.18213 257.56 6.67V269.94C257.56 271.428 258.151 272.855 259.203 273.907C260.255 274.959 261.682 275.55 263.17 275.55H443.92C445.408 275.55 446.835 274.959 447.887 273.907C448.939 272.855 449.53 271.428 449.53 269.94V6.67C449.53 5.18213 448.939 3.75521 447.887 2.70313C446.835 1.65105 445.408 1.06 443.92 1.06H263.17Z" fill="#E0E0E0"/>
<path d="M235.49 275.8H54.75C53.1949 275.8 51.7034 275.183 50.6028 274.084C49.5023 272.986 48.8827 271.495 48.88 269.94V6.67C48.88 5.89961 49.0319 5.13678 49.327 4.42516C49.6221 3.71354 50.0547 3.0671 50.5999 2.52281C51.1451 1.97853 51.7923 1.54709 52.5044 1.25319C53.2165 0.959286 53.9796 0.808684 54.75 0.809998H235.49C237.044 0.809998 238.535 1.42739 239.634 2.52635C240.733 3.62532 241.35 5.11583 241.35 6.67V269.94C241.35 270.71 241.198 271.472 240.904 272.183C240.609 272.893 240.178 273.539 239.634 274.084C239.09 274.628 238.443 275.059 237.733 275.354C237.022 275.648 236.26 275.8 235.49 275.8ZM54.75 1.06C53.2612 1.06 51.8333 1.65073 50.7796 2.70252C49.7259 3.75432 49.1327 5.18122 49.13 6.67V269.94C49.1327 271.429 49.7259 272.856 50.7796 273.907C51.8333 274.959 53.2612 275.55 54.75 275.55H235.49C236.227 275.55 236.956 275.405 237.637 275.123C238.317 274.841 238.936 274.428 239.457 273.907C239.978 273.386 240.391 272.767 240.673 272.087C240.955 271.406 241.1 270.677 241.1 269.94V6.67C241.1 5.93328 240.955 5.20379 240.673 4.52315C240.391 3.84251 239.978 3.22407 239.457 2.70313C238.936 2.1822 238.317 1.76897 237.637 1.48704C236.956 1.20511 236.227 1.06 235.49 1.06H54.75Z" fill="#E0E0E0"/>
<path d="M329.9 43.12L326.21 55.99H316.28L312.59 43.12H329.9Z" fill="#E6E6E6"/>
<path d="M321.47 35.15C321.47 35.15 312.47 30.9 312.38 23.69C312.38 23.69 321 27.07 321.47 35.15Z" fill="#E0E0E0"/>
<path d="M321.25 40.45C321.25 40.45 330.47 36.63 330.86 29.45C330.86 29.42 322.14 32.4 321.25 40.45Z" fill="#E0E0E0"/>
<path d="M319.6 27.52C319.6 27.52 327.9 21.96 326.86 14.82C326.86 14.82 318.89 19.46 319.6 27.52Z" fill="#E0E0E0"/>
<path d="M321.24 43.74L320.24 43.53C322.82 31.18 315.05 14.63 314.97 14.46L315.89 14.02C316.23 14.71 323.9 31.05 321.24 43.74Z" fill="#E0E0E0"/>
<path d="M304.8 56.04H284.8L281.04 36.35H301.04L304.8 56.04Z" fill="#F0F0F0"/>
<path d="M301.6 53.4H286.99L286.13 48.96L284.23 38.99H298.85L299.78 43.89L301.6 53.4Z" fill="#FAFAFA"/>
<path d="M290.5 44.27C291.323 44.27 291.99 43.6029 291.99 42.78C291.99 41.9571 291.323 41.29 290.5 41.29C289.677 41.29 289.01 41.9571 289.01 42.78C289.01 43.6029 289.677 44.27 290.5 44.27Z" fill="#E0E0E0"/>
<path d="M301.6 53.4H287L286.14 48.96C286.493 48.3851 286.978 47.9033 287.556 47.5552C288.134 47.2072 288.787 47.003 289.46 46.96C292.46 46.96 295.08 49.09 296.67 46.24C297.447 45.1669 298.537 44.3602 299.79 43.93L301.6 53.4Z" fill="#E0E0E0"/>
<path d="M281.04 36.35L275.74 56H279.7H284.8L281.04 36.35Z" fill="#E0E0E0"/>
<path d="M102.129 61.561C112.394 57.2206 117.197 45.3804 112.856 35.1152C108.516 24.85 96.6758 20.047 86.4106 24.3875C76.1454 28.7279 71.3425 40.5681 75.6829 50.8332C80.0233 61.0984 91.8635 65.9014 102.129 61.561Z" fill="#E0E0E0"/>
<path d="M101.386 60.1433C110.872 56.2143 115.376 45.3397 111.447 35.8543C107.518 26.3688 96.6433 21.8645 87.1579 25.7935C77.6724 29.7225 73.1681 40.597 77.0971 50.0825C81.0261 59.5679 91.9006 64.0723 101.386 60.1433Z" fill="#FAFAFA"/>
<path d="M94.33 26.07H93.63V29.95H94.33V26.07Z" fill="#E0E0E0"/>
<path d="M94.33 55.9H93.63V59.78H94.33V55.9Z" fill="#E0E0E0"/>
<path d="M81 42.58H77.12V43.28H81V42.58Z" fill="#E0E0E0"/>
<path d="M110.83 42.58H106.95V43.28H110.83V42.58Z" fill="#E0E0E0"/>
<path d="M105.648 30.7537L102.904 33.4977L103.399 33.9926L106.143 31.2486L105.648 30.7537Z" fill="#E0E0E0"/>
<path d="M84.5527 51.8594L81.8096 54.6035L82.3047 55.0984L85.0478 52.3543L84.5527 51.8594Z" fill="#E0E0E0"/>
<path d="M82.3087 30.7496L81.8138 31.2446L84.5578 33.9877L85.0527 33.4927L82.3087 30.7496Z" fill="#E0E0E0"/>
<path d="M103.399 51.8617L102.904 52.3566L105.647 55.1007L106.142 54.6058L103.399 51.8617Z" fill="#E0E0E0"/>
<path d="M93.8432 42.464L93.6234 43.0223L100.193 45.6087L100.412 45.0504L93.8432 42.464Z" fill="#E0E0E0"/>
<path d="M94.27 43.22H83.43V42.63H93.68V34.21H94.27V43.22Z" fill="#E0E0E0"/>
<path d="M500 336.87H0V337.12H500V336.87Z" fill="#E0E0E0"/>
<path d="M254.71 377.71C373.495 377.71 469.79 374.948 469.79 371.54C469.79 368.132 373.495 365.37 254.71 365.37C135.925 365.37 39.63 368.132 39.63 371.54C39.63 374.948 135.925 377.71 254.71 377.71Z" fill="#F5F5F5"/>
<path d="M70.39 167.09C67.518 168.843 65.2088 171.383 63.736 174.408C62.2632 177.434 61.6885 180.818 62.08 184.16C64.3 201.96 69.92 244.7 73.55 251.16C78.14 259.34 141.42 254.44 144.71 246.99C148 239.54 139.26 166.99 133.71 161.07C129.16 156.12 90.23 154.66 70.39 167.09Z" fill="black"/>
<g opacity="0.6">
<path d="M70.39 167.09C67.518 168.843 65.2088 171.383 63.736 174.408C62.2632 177.434 61.6885 180.818 62.08 184.16C64.3 201.96 69.92 244.7 73.55 251.16C78.14 259.34 141.42 254.44 144.71 246.99C148 239.54 139.26 166.99 133.71 161.07C129.16 156.12 90.23 154.66 70.39 167.09Z" fill="white"/>
</g>
<g opacity="0.5">
<path d="M77.82 252.81C77.74 252.32 69.3 203.66 68.37 185.91C67.37 167.84 76.53 163.73 76.91 163.57L77.31 164.49C77.22 164.49 68.45 168.49 69.37 185.86C70.3 203.55 78.72 252.15 78.81 252.64L77.82 252.81Z" fill="white"/>
</g>
<path d="M115.07 278.38H109.47V357.92H115.07V278.38Z" fill="black"/>
<g opacity="0.5">
<path d="M115.07 278.38H109.47V357.92H115.07V278.38Z" fill="white"/>
</g>
<path d="M72.93 359.13H68.45V356.86C68.45 352.882 70.0304 349.066 72.8434 346.253C75.6565 343.44 79.4718 341.86 83.45 341.86H107.08V346.34H83.46C80.6672 346.345 77.9904 347.458 76.0165 349.434C74.0426 351.409 72.9327 354.087 72.93 356.88V359.13Z" fill="black"/>
<g opacity="0.6">
<path d="M72.93 359.13H68.45V356.86C68.45 352.882 70.0304 349.066 72.8434 346.253C75.6565 343.44 79.4718 341.86 83.45 341.86H107.08V346.34H83.46C80.6672 346.345 77.9904 347.458 76.0165 349.434C74.0426 351.409 72.9327 354.087 72.93 356.88V359.13Z" fill="white"/>
</g>
<path d="M78.1302 365.272C79.0995 361.165 76.5562 357.051 72.4495 356.081C68.3429 355.112 64.2281 357.655 63.2588 361.762C62.2896 365.869 64.8329 369.983 68.9396 370.953C73.0462 371.922 77.161 369.379 78.1302 365.272Z" fill="black"/>
<g opacity="0.4">
<path d="M78.1302 365.272C79.0995 361.165 76.5562 357.051 72.4495 356.081C68.3429 355.112 64.2281 357.655 63.2588 361.762C62.2896 365.869 64.8329 369.984 68.9396 370.953C73.0462 371.922 77.161 369.379 78.1302 365.272Z" fill="white"/>
</g>
<g opacity="0.5">
<path d="M70.69 367.39C72.8163 367.39 74.54 365.666 74.54 363.54C74.54 361.414 72.8163 359.69 70.69 359.69C68.5637 359.69 66.84 361.414 66.84 363.54C66.84 365.666 68.5637 367.39 70.69 367.39Z" fill="white"/>
</g>
<path d="M117.671 368.947C120.654 365.963 120.654 361.126 117.671 358.143C114.687 355.159 109.85 355.159 106.866 358.143C103.883 361.126 103.883 365.964 106.866 368.947C109.85 371.931 114.687 371.931 117.671 368.947Z" fill="black"/>
<g opacity="0.4">
<path d="M117.671 368.947C120.654 365.964 120.654 361.126 117.671 358.143C114.687 355.159 109.85 355.159 106.866 358.143C103.883 361.126 103.883 365.964 106.866 368.947C109.85 371.931 114.687 371.931 117.671 368.947Z" fill="white"/>
</g>
<g opacity="0.5">
<path d="M112.27 367.39C114.396 367.39 116.12 365.666 116.12 363.54C116.12 361.414 114.396 359.69 112.27 359.69C110.144 359.69 108.42 361.414 108.42 363.54C108.42 365.666 110.144 367.39 112.27 367.39Z" fill="white"/>
</g>
<path d="M155.51 359.13H151V356.86C150.997 354.067 149.887 351.389 147.914 349.414C145.94 347.438 143.263 346.325 140.47 346.32H116.87V341.84H140.5C144.478 341.84 148.294 343.42 151.107 346.233C153.92 349.046 155.5 352.862 155.5 356.84L155.51 359.13Z" fill="black"/>
<g opacity="0.6">
<path d="M155.51 359.13H151V356.86C150.997 354.067 149.887 351.389 147.914 349.414C145.94 347.438 143.263 346.325 140.47 346.32H116.87V341.84H140.5C144.478 341.84 148.294 343.42 151.107 346.233C153.92 349.046 155.5 352.862 155.5 356.84L155.51 359.13Z" fill="white"/>
</g>
<path d="M158.774 368.854C161.691 365.805 161.584 360.969 158.535 358.052C155.486 355.136 150.65 355.243 147.733 358.292C144.816 361.341 144.923 366.177 147.972 369.094C151.021 372.011 155.857 371.903 158.774 368.854Z" fill="black"/>
<g opacity="0.4">
<path d="M158.774 368.854C161.691 365.805 161.584 360.969 158.535 358.052C155.486 355.136 150.65 355.243 147.733 358.292C144.816 361.341 144.923 366.177 147.972 369.094C151.021 372.011 155.857 371.903 158.774 368.854Z" fill="white"/>
</g>
<g opacity="0.5">
<path d="M149.42 363.54C149.42 364.301 149.646 365.046 150.069 365.679C150.492 366.312 151.093 366.806 151.797 367.097C152.5 367.388 153.274 367.465 154.021 367.316C154.768 367.167 155.454 366.801 155.992 366.262C156.531 365.724 156.898 365.038 157.046 364.291C157.195 363.544 157.118 362.77 156.827 362.067C156.536 361.363 156.042 360.762 155.409 360.339C154.776 359.916 154.032 359.69 153.27 359.69C152.249 359.69 151.27 360.096 150.548 360.818C149.826 361.54 149.42 362.519 149.42 363.54Z" fill="white"/>
</g>
<path d="M117.45 337.05H107.09V352.24H117.45V337.05Z" fill="black"/>
<g opacity="0.6">
<path d="M117.45 337.05H107.09V352.24H117.45V337.05Z" fill="white"/>
</g>
<path d="M117.45 277.53H107.09V292.72H117.45V277.53Z" fill="black"/>
<g opacity="0.6">
<path d="M117.45 277.53H107.09V292.72H117.45V277.53Z" fill="white"/>
</g>
<path d="M148.33 251.47C148.33 251.47 152.12 252.07 161.65 253.68C164.83 254.22 167.94 254.73 170.65 255.16C173.293 255.581 175.698 256.932 177.434 258.968C179.17 261.005 180.122 263.594 180.12 266.27C180.121 267.748 179.831 269.212 179.267 270.578C178.702 271.944 177.873 273.186 176.828 274.231C175.784 275.277 174.543 276.107 173.178 276.673C171.812 277.239 170.348 277.53 168.87 277.53H91.66C87.852 277.555 84.1415 276.326 81.1015 274.033C78.0616 271.739 75.8611 268.509 74.84 264.84C73.7565 260.471 73.3418 255.963 73.61 251.47H148.33Z" fill="black"/>
<g opacity="0.5">
<path d="M148.33 251.47C148.33 251.47 152.12 252.07 161.65 253.68C164.83 254.22 167.94 254.73 170.65 255.16C173.293 255.581 175.698 256.932 177.434 258.968C179.17 261.005 180.122 263.594 180.12 266.27C180.121 267.748 179.831 269.212 179.267 270.578C178.702 271.944 177.873 273.186 176.828 274.231C175.784 275.277 174.543 276.107 173.178 276.673C171.812 277.239 170.348 277.53 168.87 277.53H91.66C87.852 277.555 84.1415 276.326 81.1015 274.033C78.0616 271.739 75.8611 268.509 74.84 264.84C73.7565 260.471 73.3418 255.963 73.61 251.47H148.33Z" fill="white"/>
</g>
<path d="M132.47 164.93C136.42 170.81 140.24 177 144 183C145.92 186 147.74 189 149.69 191.88C150.63 193.33 151.59 194.74 152.54 196.09C153.49 197.44 154.45 198.73 155.3 199.77L156.3 200.93C156.3 200.93 156.36 201.02 156.3 201C156.24 200.98 156.11 200.93 156.11 200.95C156.135 200.977 156.155 201.007 156.17 201.04L156.46 201.2C157.05 201.501 157.662 201.758 158.29 201.97L160.58 202.74C163.78 203.74 167.27 204.58 170.74 205.48C177.74 207.21 184.89 208.87 192 210.79L191.5 217.51C184.049 218.27 176.558 218.571 169.07 218.41C165.28 218.41 161.52 218.15 157.55 217.72C156.55 217.61 155.55 217.48 154.48 217.29C153.319 217.101 152.171 216.844 151.04 216.52L150.04 216.21C149.64 216.07 149.25 215.91 148.86 215.74C148.38 215.526 147.913 215.286 147.46 215.02C147.03 214.77 146.69 214.55 146.35 214.32C145.256 213.56 144.21 212.732 143.22 211.84C141.645 210.403 140.143 208.888 138.72 207.3C137.36 205.8 136.1 204.3 134.87 202.8C132.48 199.8 130.15 196.8 128 193.68C123.643 187.576 119.675 181.204 116.12 174.6L132.47 164.93Z" fill="#B5CFB7"/>
<path opacity="0.2" d="M133.72 171.85L129.27 171.11C129.27 171.11 127.05 181.73 125.27 189.76C126.16 191.07 127.05 192.38 127.97 193.69C130.12 196.79 132.45 199.78 134.84 202.81C136.07 204.31 137.33 205.81 138.69 207.31C140.113 208.898 141.615 210.413 143.19 211.85C144.18 212.742 145.226 213.57 146.32 214.33C146.66 214.56 147 214.78 147.43 215.03C147.883 215.296 148.35 215.536 148.83 215.75C149.22 215.92 149.61 216.08 150.01 216.22L151.01 216.53C152.141 216.854 153.289 217.111 154.45 217.3C155.5 217.49 156.52 217.62 157.52 217.73C161.43 218.15 165.14 218.37 168.86 218.42H171.44C167.79 218.27 156.63 217.25 148.44 210.33C138.45 202 133.72 171.85 133.72 171.85Z" fill="black"/>
<path d="M105.56 156.11C105.56 156.11 85.56 158.11 82.78 168.5C80.87 175.79 81.44 218.5 95.29 244.32C99.21 251.62 150.37 239.06 148.37 234.2C142.76 220.57 129.59 188.05 133.72 171.85C136.62 160.5 115.07 156.53 115.07 156.53L105.56 156.11Z" fill="#B5CFB7"/>
<path opacity="0.2" d="M100.18 181.47C100.18 181.47 98.0501 191.67 101.81 197.21C105.57 202.75 113.93 205.12 118.81 205.77C123.69 206.42 96.1801 206.42 96.1801 206.42L91.9301 186.81L100.18 181.47Z" fill="black"/>
<g opacity="0.2">
<path d="M97.92 241.8C93.92 236.46 87.65 206.22 87.38 204.93L87.87 204.83C87.93 205.14 94.4 236.25 98.33 241.5L97.92 241.8Z" fill="white"/>
</g>
<g opacity="0.2">
<path d="M85.47 214.82C85.47 214.82 89 225.95 102.86 226.82C116.72 227.69 142.96 220.3 142.96 220.3L142.3 218.3L85.47 214.82Z" fill="black"/>
</g>
<path d="M109.9 173L112.9 218.87L121.26 226.06L125.54 215.69C125.54 215.69 115.82 187.78 113.3 171.13L109.9 173Z" fill="#263238"/>
<path d="M124.19 119.28C124.19 119.28 127.69 121.88 124.69 127.59L120.59 119.14L124.19 119.28Z" fill="#263238"/>
<path d="M98.55 130.21C98.55 130.21 94.14 126.28 94.55 124.61C95 122.61 97.27 123.2 97.27 123.2C97.27 123.2 96.11 115.41 97.96 113.67C99.48 112.23 101.77 114.67 101.77 114.67C101.77 114.67 106.84 107.15 109.99 107.28C113.14 107.41 111.48 110.03 111.48 110.03C111.48 110.03 119.48 104.22 122.25 105.33C125.02 106.44 123.41 109.45 123.41 109.45C123.41 109.45 129.31 104.24 130.94 107.45C132.57 110.66 125.53 115.65 125.53 115.65C125.53 115.65 129.53 116.53 127.77 119.14C127.343 119.861 126.666 120.4 125.869 120.656C125.071 120.912 124.207 120.867 123.44 120.53L98.55 130.21Z" fill="#263238"/>
<path d="M115.5 159.08C114.62 160.25 112.86 161.65 109.36 162.08C104.95 162.67 102.27 159.85 100.89 158.36C102.119 151.537 102.186 144.556 101.09 137.71L115.19 149.46C114.22 152.88 113.72 156.4 115.5 159.08Z" fill="#FF8B7B"/>
<g opacity="0.2">
<path d="M106.84 142.55L115.19 149.5C114.801 150.758 114.533 152.051 114.39 153.36C111.2 152.85 107.25 150.25 106.05 146.94C105.3 144.88 106.05 142.77 106.84 142.55Z" fill="black"/>
</g>
<path d="M98.75 127.13C98.5851 124.94 98.9826 122.743 99.9049 120.75C100.827 118.756 102.244 117.031 104.02 115.739C105.796 114.447 107.873 113.63 110.054 113.366C112.235 113.101 114.447 113.399 116.48 114.23C125.72 118 127 132 125 140.44C122.77 149.85 111.14 154.2 104 146.93C99.22 142.11 99.35 136.56 98.75 127.13Z" fill="#FF8B7B"/>
<path d="M115.3 132.6C115.223 132.6 115.148 132.576 115.085 132.531C115.022 132.486 114.975 132.423 114.95 132.35C114.88 132.076 114.743 131.823 114.551 131.615C114.359 131.408 114.118 131.251 113.85 131.16C113.395 131.064 112.92 131.143 112.52 131.38C112.473 131.446 112.405 131.494 112.327 131.518C112.249 131.541 112.166 131.538 112.09 131.51C111.996 131.476 111.92 131.407 111.877 131.317C111.834 131.227 111.828 131.124 111.86 131.03C111.99 130.67 112.86 130.37 113.46 130.37C113.969 130.364 114.465 130.532 114.865 130.847C115.265 131.162 115.546 131.604 115.66 132.1C115.692 132.194 115.686 132.297 115.643 132.387C115.6 132.477 115.524 132.546 115.43 132.58L115.3 132.6Z" fill="#263238"/>
<path d="M121.17 132.75H121.08C121.033 132.738 120.988 132.717 120.949 132.688C120.91 132.659 120.877 132.623 120.851 132.581C120.826 132.539 120.81 132.493 120.803 132.445C120.796 132.396 120.798 132.347 120.81 132.3C121.15 130.91 122.02 130.64 122.51 130.61C123 130.58 123.96 130.88 124.1 131.22C124.136 131.313 124.135 131.416 124.095 131.508C124.056 131.6 123.982 131.672 123.89 131.71C123.813 131.739 123.73 131.743 123.651 131.721C123.572 131.699 123.501 131.654 123.45 131.59C123.285 131.485 123.102 131.414 122.909 131.382C122.717 131.349 122.52 131.355 122.33 131.4C122.114 131.494 121.926 131.644 121.786 131.833C121.646 132.023 121.557 132.246 121.53 132.48C121.51 132.559 121.463 132.629 121.397 132.678C121.332 132.727 121.252 132.753 121.17 132.75Z" fill="#263238"/>
<path d="M121.67 140.31C121.396 141.016 120.949 141.642 120.371 142.131C119.793 142.62 119.101 142.956 118.36 143.11C118.005 143.182 117.641 143.202 117.28 143.17C116.54 143.169 115.813 142.967 115.178 142.587C114.542 142.207 114.021 141.662 113.67 141.01C113.301 140.33 113.06 139.587 112.96 138.82C112.952 138.747 112.963 138.673 112.991 138.605C113.02 138.537 113.066 138.477 113.124 138.432C113.182 138.387 113.251 138.358 113.324 138.347C113.397 138.336 113.471 138.344 113.54 138.37C113.54 138.37 113.54 138.37 113.6 138.37C116.048 139.287 118.646 139.735 121.26 139.69C121.367 139.69 121.47 139.729 121.55 139.8C121.626 139.858 121.68 139.94 121.702 140.033C121.724 140.126 121.713 140.224 121.67 140.31Z" fill="#263238"/>
<path d="M118.36 143.11C118.005 143.182 117.641 143.202 117.28 143.17C116.54 143.169 115.813 142.967 115.178 142.587C114.542 142.207 114.021 141.662 113.67 141.01C114.803 140.848 115.958 140.958 117.04 141.33C117.425 141.44 117.764 141.674 118.002 141.996C118.241 142.318 118.367 142.709 118.36 143.11Z" fill="#FF5652"/>
<path d="M121.55 139.83C121.478 139.985 121.38 140.127 121.26 140.25C120.5 141.03 114.4 139.76 113.96 139.41C113.714 139.136 113.585 138.778 113.6 138.41C116.048 139.327 118.646 139.775 121.26 139.73C121.366 139.727 121.468 139.763 121.55 139.83Z" fill="white"/>
<path d="M98.59 129.2C98.59 129.64 100.66 133.28 103.22 132.54C105.78 131.8 104.22 124.83 104.22 124.83C104.22 124.83 109.22 125.31 107.74 121.11C108.934 121.854 110.349 122.161 111.744 121.979C113.139 121.796 114.427 121.136 115.39 120.11C115.39 120.11 121.31 123.76 124.18 121.56C124.18 121.56 124.52 113.19 115.04 111.03C109.7 109.86 97.83 114 98.59 129.2Z" fill="#263238"/>
<path d="M94.72 135C95.3879 137.274 96.9259 139.193 99 140.34C101.78 141.82 103.85 139.5 103.64 136.53C103.46 133.85 101.79 129.85 98.73 129.59C95.67 129.33 93.89 132.21 94.73 135.01" fill="#FF8B7B"/>
<path d="M124.3 128.23C124.235 128.22 124.173 128.194 124.12 128.154C124.068 128.114 124.026 128.061 124 128C123.884 127.762 123.72 127.551 123.518 127.379C123.317 127.207 123.083 127.078 122.83 127C122.312 126.895 121.774 126.976 121.31 127.23C121.225 127.28 121.124 127.295 121.028 127.271C120.932 127.246 120.85 127.185 120.8 127.1C120.75 127.015 120.735 126.914 120.759 126.818C120.784 126.722 120.845 126.64 120.93 126.59C121.564 126.222 122.315 126.107 123.03 126.27C123.378 126.376 123.7 126.551 123.979 126.785C124.257 127.018 124.485 127.306 124.65 127.63C124.675 127.673 124.691 127.72 124.697 127.768C124.704 127.817 124.7 127.867 124.687 127.914C124.674 127.962 124.652 128.006 124.621 128.045C124.591 128.084 124.553 128.116 124.51 128.14C124.454 128.196 124.379 128.228 124.3 128.23Z" fill="#263238"/>
<path d="M111.21 128.53C111.157 128.539 111.103 128.539 111.05 128.53C111.006 128.509 110.966 128.479 110.933 128.442C110.901 128.405 110.876 128.362 110.86 128.316C110.844 128.269 110.838 128.22 110.841 128.171C110.845 128.122 110.858 128.074 110.88 128.03C111.21 127.375 111.774 126.868 112.46 126.61C112.81 126.505 113.178 126.473 113.541 126.516C113.904 126.559 114.254 126.676 114.57 126.86C114.644 126.913 114.696 126.99 114.718 127.079C114.74 127.167 114.729 127.26 114.688 127.341C114.647 127.422 114.578 127.486 114.494 127.52C114.41 127.555 114.316 127.558 114.23 127.53C114.002 127.395 113.749 127.307 113.486 127.271C113.223 127.235 112.956 127.252 112.7 127.32C112.212 127.509 111.805 127.863 111.55 128.32C111.518 128.382 111.469 128.435 111.409 128.472C111.349 128.509 111.28 128.529 111.21 128.53Z" fill="#263238"/>
<path d="M113.71 134.92C112.763 134.913 111.858 134.531 111.193 133.857C110.528 133.182 110.158 132.272 110.165 131.325C110.172 130.378 110.554 129.473 111.228 128.808C111.903 128.143 112.813 127.773 113.76 127.78C114.229 127.785 114.692 127.883 115.123 128.069C115.554 128.254 115.944 128.523 116.27 128.86C116.76 129.363 117.09 130 117.22 130.689C117.35 131.379 117.274 132.092 117 132.739C116.727 133.386 116.269 133.938 115.684 134.326C115.099 134.714 114.412 134.92 113.71 134.92ZM113.76 128.28C112.946 128.28 112.165 128.603 111.589 129.179C111.013 129.755 110.69 130.536 110.69 131.35C110.69 132.164 111.013 132.945 111.589 133.521C112.165 134.097 112.946 134.42 113.76 134.42C114.562 134.42 115.333 134.106 115.906 133.546C116.48 132.985 116.812 132.222 116.83 131.42C116.841 130.611 116.532 129.83 115.97 129.248C115.408 128.665 114.639 128.328 113.83 128.31L113.76 128.28Z" fill="white"/>
<path d="M122.94 134.43C122.471 134.426 122.007 134.329 121.576 134.143C121.145 133.958 120.755 133.688 120.43 133.35C119.956 132.846 119.638 132.215 119.517 131.533C119.396 130.852 119.476 130.149 119.748 129.513C120.019 128.876 120.471 128.332 121.047 127.948C121.622 127.564 122.298 127.356 122.99 127.35C123.459 127.354 123.923 127.451 124.354 127.637C124.785 127.822 125.175 128.092 125.5 128.43C126.155 129.108 126.515 130.018 126.5 130.96C126.494 131.429 126.395 131.892 126.21 132.322C126.024 132.753 125.756 133.143 125.42 133.47C124.75 134.101 123.86 134.446 122.94 134.43ZM122.94 127.8C122.436 127.798 121.939 127.92 121.493 128.156C121.048 128.392 120.667 128.734 120.385 129.152C120.102 129.569 119.927 130.05 119.875 130.552C119.823 131.053 119.895 131.56 120.085 132.027C120.275 132.494 120.577 132.907 120.965 133.23C121.352 133.552 121.813 133.774 122.307 133.876C122.801 133.978 123.312 133.957 123.795 133.815C124.279 133.673 124.72 133.413 125.08 133.06C125.371 132.782 125.604 132.449 125.764 132.08C125.923 131.71 126.007 131.312 126.01 130.91C126.023 130.1 125.715 129.318 125.153 128.735C124.59 128.152 123.82 127.816 123.01 127.8H122.94Z" fill="white"/>
<path d="M118.31 130.48C119.336 132.088 120.567 133.557 121.97 134.85C123.9 136.46 118.97 137.59 118.97 137.59L118.31 130.48Z" fill="#FF5652"/>
<path d="M119.62 131.07C119.578 131.084 119.532 131.084 119.49 131.07C119.158 130.826 118.76 130.69 118.348 130.681C117.936 130.672 117.532 130.791 117.19 131.02C117.138 131.062 117.072 131.083 117.005 131.076C116.939 131.069 116.877 131.037 116.835 130.985C116.793 130.933 116.772 130.867 116.779 130.8C116.786 130.734 116.818 130.672 116.87 130.63C117.293 130.332 117.798 130.172 118.315 130.172C118.832 130.172 119.337 130.332 119.76 130.63C119.788 130.647 119.811 130.67 119.83 130.696C119.848 130.723 119.861 130.753 119.868 130.785C119.874 130.817 119.874 130.85 119.868 130.881C119.861 130.913 119.848 130.943 119.83 130.97C119.806 131.002 119.774 131.028 119.737 131.046C119.701 131.063 119.661 131.072 119.62 131.07Z" fill="white"/>
<path d="M110.45 130.94C110.392 130.938 110.335 130.917 110.29 130.88C109.196 130.015 107.847 129.536 106.452 129.518C105.058 129.5 103.696 129.944 102.58 130.78C102.553 130.799 102.523 130.813 102.491 130.82C102.458 130.828 102.425 130.829 102.393 130.823C102.36 130.817 102.329 130.805 102.301 130.788C102.273 130.77 102.249 130.747 102.23 130.72C102.194 130.665 102.18 130.598 102.191 130.533C102.202 130.468 102.238 130.41 102.29 130.37C103.503 129.485 104.971 129.019 106.472 129.042C107.973 129.066 109.426 129.577 110.61 130.5C110.634 130.522 110.653 130.55 110.666 130.58C110.679 130.61 110.686 130.642 110.686 130.675C110.686 130.708 110.679 130.74 110.666 130.77C110.653 130.8 110.634 130.828 110.61 130.85C110.57 130.899 110.513 130.931 110.45 130.94Z" fill="white"/>
<path d="M101.18 154.73C101.18 154.73 95.75 154.94 94.27 159.91L106.18 172.79L109.36 162.13C109.36 162.13 102 159.53 101.18 154.73Z" fill="#B5CFB7"/>
<path d="M105.82 172.65H105.7C99.27 169.32 94.37 160.45 94.32 160.36C94.2906 160.301 94.2846 160.233 94.3031 160.17C94.3217 160.107 94.3634 160.054 94.42 160.02C94.4788 159.991 94.5466 159.985 94.6097 160.003C94.6728 160.022 94.7265 160.063 94.76 160.12C94.76 160.21 99.64 168.95 105.93 172.21C105.978 172.236 106.017 172.277 106.039 172.327C106.062 172.377 106.067 172.434 106.055 172.487C106.042 172.541 106.013 172.589 105.97 172.623C105.928 172.658 105.875 172.678 105.82 172.68V172.65Z" fill="white"/>
<path d="M116 170C115.961 170 115.923 169.991 115.888 169.974C115.854 169.956 115.823 169.931 115.8 169.9C115.754 169.853 115.729 169.79 115.729 169.725C115.729 169.66 115.754 169.597 115.8 169.55C118.8 167.21 121.32 159.24 121.35 159.16C121.369 159.096 121.412 159.043 121.47 159.011C121.528 158.979 121.596 158.971 121.66 158.99C121.724 159.011 121.778 159.056 121.81 159.116C121.842 159.175 121.849 159.245 121.83 159.31C121.72 159.64 119.28 167.51 116.1 169.95C116.071 169.974 116.037 169.991 116 170Z" fill="white"/>
<path d="M114.14 155.63C114.14 155.63 112.84 160.53 109.36 162.13L115.53 168.98C115.53 168.98 121.18 161.66 120.6 157.98C119.799 157.088 118.791 156.407 117.664 155.997C116.537 155.587 115.327 155.461 114.14 155.63Z" fill="#B5CFB7"/>
<path d="M109.36 162.13L106.18 172.79L112.09 177.39L115.53 168.98L109.36 162.13Z" fill="#263238"/>
<path d="M122.25 238.63C122.25 238.63 110.83 264.52 135.33 271.05C152.08 275.52 176.48 264.27 187.28 267.83C187.28 267.83 182.57 269.49 177.12 287.73C171.67 305.97 161.12 350.22 161.12 350.22L174.12 350.75C174.12 350.75 210.01 269.64 210.71 256.75C211.41 243.86 147.19 234.65 147.19 234.65L122.25 238.63Z" fill="#263238"/>
<path d="M190.39 257.54C189.69 270.41 145.96 350.66 145.96 350.66L134.17 350.35H133.65L129.79 350.25C129.79 350.25 143 308.2 148.43 290C153.37 273.47 159.7 271.63 160.84 271.43C146.29 272.96 128.32 274.84 108.69 272.77C83.3 270.09 94.31 242.33 94.31 242.33L98.67 241.76L99.22 241.69L122.22 238.69C122.22 238.69 191.08 244.67 190.39 257.54Z" fill="#263238"/>
<g opacity="0.2">
<path d="M101.5 252.19C100.203 252.179 98.9115 252.021 97.65 251.72L97.76 251.23C101.7 252.14 105.08 251.68 107.76 249.85C112.76 246.52 113.91 239.71 113.92 239.64L114.41 239.72C114.41 239.8 113.2 246.81 108.04 250.27C106.1 251.547 103.823 252.215 101.5 252.19Z" fill="white"/>
</g>
<g opacity="0.2">
<path d="M166.25 270.4C160.072 278.727 154.908 287.76 150.87 297.31C144.25 312.98 134.96 347.4 134.17 350.31V350.51C134.153 350.564 134.12 350.611 134.076 350.645C134.031 350.679 133.976 350.698 133.92 350.7H133.86C133.797 350.679 133.744 350.636 133.711 350.579C133.678 350.522 133.667 350.455 133.68 350.39V350.31C134.19 348.43 143.68 313.05 150.44 297.09C154.495 287.51 159.675 278.447 165.87 270.09C168.19 266.86 169.72 264.73 169.43 263.72C169.377 263.569 169.288 263.433 169.172 263.323C169.055 263.214 168.914 263.134 168.76 263.09C167.32 262.49 160.76 263.2 152.41 264.09C136.92 265.77 115.71 268.09 105.08 264.7C103.738 264.302 102.493 263.633 101.421 262.733C100.349 261.833 99.4742 260.722 98.85 259.47C95.68 253.24 97.97 244.18 98.7 241.68L99.25 241.61C98.64 243.68 96.15 253.07 99.25 259.25C99.8454 260.445 100.68 261.506 101.701 262.366C102.723 263.226 103.911 263.867 105.19 264.25C115.72 267.6 136.88 265.3 152.32 263.62C161.05 262.67 167.32 261.99 168.91 262.62C169.147 262.69 169.363 262.818 169.537 262.993C169.712 263.167 169.84 263.383 169.91 263.62C170.23 264.85 168.82 266.82 166.25 270.4Z" fill="white"/>
</g>
<path d="M131.57 350.24L129.52 360.64H137.99L142.79 351.44L131.57 350.24Z" fill="#FF8B7B"/>
<path d="M129.49 358.52C129.49 358.52 127.55 358.22 127.65 360.64C127.75 363.06 125.65 368.89 125.75 371.13H151.75C151.75 371.13 152.59 365.58 147.87 365.41C141.55 365.19 139.4 361.56 139.4 361.56C139.03 359.02 137.21 359.87 134.54 360.14C132.14 360.39 129.49 358.52 129.49 358.52Z" fill="#B5CFB7"/>
<path d="M140.79 363C140.433 363.055 140.091 363.181 139.784 363.369C139.477 363.558 139.21 363.807 139 364.1" fill="black"/>
<path d="M139 364.35C138.958 364.363 138.912 364.363 138.87 364.35C138.814 364.313 138.775 364.256 138.76 364.191C138.745 364.126 138.756 364.057 138.79 364C139.027 363.678 139.326 363.407 139.67 363.203C140.013 362.999 140.394 362.865 140.79 362.81C140.855 362.804 140.919 362.824 140.97 362.865C141.02 362.906 141.052 362.965 141.06 363.03C141.064 363.063 141.062 363.096 141.053 363.128C141.044 363.16 141.029 363.19 141.009 363.216C140.988 363.242 140.963 363.264 140.934 363.28C140.905 363.296 140.873 363.306 140.84 363.31C140.515 363.359 140.204 363.473 139.924 363.645C139.644 363.817 139.401 364.043 139.21 364.31C139.18 364.332 139.146 364.348 139.11 364.355C139.073 364.362 139.036 364.36 139 364.35Z" fill="black"/>
<path d="M142 363.56C141.64 363.609 141.293 363.73 140.981 363.916C140.668 364.101 140.396 364.348 140.18 364.64" fill="black"/>
<path d="M140.19 364.89C140.147 364.899 140.103 364.899 140.06 364.89C140.004 364.853 139.965 364.796 139.95 364.731C139.935 364.666 139.946 364.597 139.98 364.54C140.217 364.218 140.516 363.948 140.86 363.743C141.203 363.539 141.584 363.405 141.98 363.35C142.046 363.343 142.113 363.363 142.164 363.406C142.216 363.448 142.248 363.509 142.255 363.575C142.262 363.641 142.242 363.708 142.199 363.759C142.157 363.811 142.096 363.843 142.03 363.85C141.706 363.901 141.395 364.015 141.115 364.187C140.835 364.358 140.592 364.584 140.4 364.85C140.37 364.872 140.336 364.888 140.3 364.895C140.263 364.902 140.226 364.9 140.19 364.89Z" fill="black"/>
<path d="M143.51 364.28C143.151 364.33 142.807 364.451 142.496 364.637C142.185 364.822 141.914 365.068 141.7 365.36" fill="black"/>
<path d="M141.7 365.61C141.658 365.623 141.612 365.623 141.57 365.61C141.514 365.573 141.475 365.516 141.46 365.451C141.445 365.386 141.456 365.317 141.49 365.26C141.727 364.938 142.026 364.667 142.37 364.463C142.713 364.259 143.094 364.125 143.49 364.07C143.556 364.064 143.622 364.084 143.674 364.125C143.726 364.165 143.76 364.225 143.77 364.29C143.774 364.323 143.772 364.356 143.763 364.388C143.754 364.42 143.739 364.45 143.719 364.476C143.698 364.502 143.673 364.524 143.644 364.54C143.615 364.556 143.583 364.566 143.55 364.57C143.225 364.619 142.914 364.733 142.634 364.905C142.354 365.077 142.111 365.303 141.92 365.57C141.889 365.593 141.853 365.609 141.815 365.616C141.777 365.623 141.737 365.621 141.7 365.61Z" fill="black"/>
<path d="M151.56 369.62H125.92C125.854 369.62 125.79 369.594 125.743 369.547C125.696 369.5 125.67 369.436 125.67 369.37C125.67 369.304 125.696 369.24 125.743 369.193C125.79 369.146 125.854 369.12 125.92 369.12H151.56C151.626 369.12 151.69 369.146 151.737 369.193C151.784 369.24 151.81 369.304 151.81 369.37C151.81 369.436 151.784 369.5 151.737 369.547C151.69 369.594 151.626 369.62 151.56 369.62Z" fill="black"/>
<path d="M147.25 354.74H127.17L128.44 348.56H148.51L147.25 354.74Z" fill="#263238"/>
<g opacity="0.3">
<path d="M147.25 354.74H127.17L128.44 348.56H148.51L147.25 354.74Z" fill="white"/>
</g>
<path d="M162.62 350.24L161.01 360.64H169.48L173.09 351.35L162.62 350.24Z" fill="#FF8B7B"/>
<path d="M160.9 358.52C160.9 358.52 158.9 358.22 159.14 360.64C159.38 363.06 157.49 368.89 157.68 371.13H183.68C183.68 371.13 184.28 365.58 179.55 365.41C173.23 365.19 170.92 361.56 170.92 361.56C170.45 359.02 168.66 359.87 166 360.14C163.62 360.39 160.9 358.52 160.9 358.52Z" fill="#B5CFB7"/>
<path d="M172.39 363C172.036 363.048 171.696 363.168 171.392 363.354C171.087 363.54 170.824 363.787 170.62 364.08" fill="black"/>
<path d="M170.62 364.35C170.578 364.363 170.532 364.363 170.49 364.35C170.462 364.334 170.437 364.312 170.418 364.285C170.398 364.259 170.384 364.229 170.377 364.197C170.369 364.165 170.368 364.132 170.374 364.1C170.38 364.068 170.392 364.037 170.41 364.01C170.638 363.679 170.935 363.4 171.28 363.194C171.625 362.987 172.01 362.856 172.41 362.81C172.475 362.806 172.54 362.827 172.591 362.867C172.643 362.908 172.678 362.966 172.69 363.03C172.696 363.096 172.676 363.162 172.635 363.214C172.595 363.266 172.535 363.3 172.47 363.31C172.152 363.358 171.847 363.472 171.575 363.644C171.303 363.816 171.07 364.043 170.89 364.31C170.853 364.34 170.808 364.36 170.76 364.367C170.713 364.374 170.664 364.368 170.62 364.35Z" fill="black"/>
<path d="M173.62 363.56C173.266 363.608 172.926 363.728 172.622 363.914C172.317 364.1 172.054 364.347 171.85 364.64" fill="black"/>
<path d="M171.85 364.89C171.811 364.899 171.77 364.899 171.73 364.89C171.673 364.857 171.632 364.802 171.615 364.739C171.598 364.675 171.607 364.607 171.64 364.55C171.869 364.22 172.166 363.942 172.511 363.735C172.856 363.528 173.241 363.397 173.64 363.35C173.706 363.344 173.772 363.364 173.824 363.405C173.876 363.445 173.91 363.505 173.92 363.57C173.924 363.603 173.922 363.636 173.913 363.668C173.904 363.7 173.889 363.73 173.869 363.756C173.848 363.782 173.823 363.804 173.794 363.82C173.765 363.836 173.733 363.846 173.7 363.85C173.386 363.893 173.084 363.999 172.812 364.162C172.54 364.325 172.305 364.542 172.12 364.8C172.089 364.84 172.046 364.869 171.998 364.885C171.95 364.901 171.899 364.903 171.85 364.89Z" fill="black"/>
<path d="M175.16 364.28C174.806 364.328 174.466 364.448 174.162 364.634C173.857 364.82 173.594 365.067 173.39 365.36" fill="black"/>
<path d="M173.39 365.61C173.348 365.623 173.302 365.623 173.26 365.61C173.205 365.575 173.166 365.52 173.151 365.456C173.136 365.393 173.146 365.326 173.18 365.27C173.404 364.946 173.693 364.671 174.029 364.465C174.364 364.258 174.74 364.124 175.13 364.07C175.196 364.064 175.262 364.084 175.314 364.125C175.366 364.165 175.4 364.225 175.41 364.29C175.416 364.356 175.396 364.422 175.355 364.474C175.315 364.526 175.255 364.56 175.19 364.57C174.872 364.618 174.567 364.732 174.295 364.904C174.023 365.076 173.79 365.303 173.61 365.57C173.578 365.592 173.542 365.607 173.504 365.614C173.466 365.621 173.427 365.619 173.39 365.61Z" fill="black"/>
<path d="M183.42 369.62H157.78C157.714 369.62 157.65 369.594 157.603 369.547C157.556 369.5 157.53 369.436 157.53 369.37C157.53 369.304 157.556 369.24 157.603 369.193C157.65 369.146 157.714 369.12 157.78 369.12H183.42C183.486 369.12 183.55 369.146 183.597 369.193C183.644 369.24 183.67 369.304 183.67 369.37C183.67 369.436 183.644 369.5 183.597 369.547C183.55 369.594 183.486 369.62 183.42 369.62Z" fill="black"/>
<path d="M176.31 354.74H158.42L159.31 348.56H177.2L176.31 354.74Z" fill="#263238"/>
<g opacity="0.3">
<path d="M176.31 354.74H158.42L159.31 348.56H177.2L176.31 354.74Z" fill="white"/>
</g>
<path d="M102.23 176.23L101.83 177.17L101.36 178.32C101.06 179.09 100.75 179.88 100.46 180.67C99.9 182.26 99.35 183.85 98.93 185.43C98.0719 188.313 97.5584 191.287 97.4 194.29C97.3644 195.429 97.4482 196.569 97.65 197.69C97.7802 198.463 98.0263 199.211 98.38 199.91C98.7307 200.511 99.1843 201.046 99.72 201.49C100.531 202.128 101.444 202.625 102.42 202.96C103.72 203.414 105.059 203.748 106.42 203.96L107 204.06L107.72 204.17L109.16 204.38L112.05 204.79C115.91 205.337 119.783 205.87 123.67 206.39C131.43 207.44 139.31 208.39 147.07 209.55L147.26 219.95C139.223 221.197 131.125 222.005 123 222.37C118.95 222.55 114.9 222.69 110.83 222.69H105.49H104.59C102.025 222.546 99.4822 222.141 97 221.48C94.1397 220.751 91.4033 219.602 88.88 218.07C87.4962 217.223 86.1969 216.245 85 215.15C83.7865 214.011 82.6848 212.759 81.71 211.41C79.8597 208.798 78.4852 205.88 77.65 202.79C76.9146 200.049 76.5216 197.228 76.48 194.39C76.4438 189.443 77.1173 184.516 78.48 179.76C79.0884 177.538 79.8094 175.349 80.64 173.2C81.05 172.14 81.48 171.08 81.95 170.03L82.69 168.45L83.08 167.64L83.56 166.7L102.23 176.23Z" fill="#B5CFB7"/>
<g opacity="0.2">
<path d="M94.6 220.82C94.6 220.77 94.46 216.17 91.38 213.36C88.3 210.55 83.05 212.44 82.99 212.46L82.82 211.99C83.05 211.91 88.44 209.99 91.71 212.99C94.98 215.99 95.1 220.61 95.1 220.81L94.6 220.82Z" fill="white"/>
</g>
<path d="M167.1 220H157.3L147.14 219.53L146 212.63C146 212.63 155.56 211.8 158.39 212.63C158.39 212.63 165.59 216.11 166.54 217.35C166.817 217.726 167.011 218.157 167.107 218.614C167.204 219.071 167.201 219.544 167.1 220Z" fill="#FF8B7B"/>
<path d="M141.67 220.2C141.635 220.2 141.601 220.191 141.57 220.176C141.538 220.16 141.511 220.138 141.49 220.11C139.56 217.89 139.38 210.9 139.38 210.6C139.379 210.568 139.384 210.535 139.395 210.505C139.407 210.475 139.424 210.447 139.447 210.424C139.469 210.4 139.496 210.382 139.526 210.369C139.556 210.356 139.588 210.35 139.62 210.35C139.685 210.35 139.747 210.375 139.793 210.42C139.84 210.464 139.867 210.525 139.87 210.59C139.87 210.66 140.05 217.7 141.87 219.78C141.916 219.828 141.942 219.893 141.942 219.96C141.942 220.027 141.916 220.092 141.87 220.14C141.842 220.163 141.81 220.18 141.776 220.19C141.742 220.2 141.706 220.204 141.67 220.2Z" fill="white"/>
<path d="M140.27 216.62C140.238 216.621 140.205 216.616 140.175 216.605C140.145 216.593 140.117 216.576 140.094 216.553C140.07 216.531 140.052 216.504 140.039 216.474C140.027 216.444 140.02 216.412 140.02 216.38C140.019 216.347 140.024 216.314 140.035 216.284C140.047 216.253 140.064 216.224 140.086 216.2C140.108 216.176 140.135 216.157 140.165 216.143C140.195 216.129 140.227 216.121 140.26 216.12L146.55 215.85C146.583 215.849 146.616 215.854 146.646 215.865C146.677 215.876 146.706 215.894 146.73 215.916C146.754 215.938 146.773 215.965 146.787 215.995C146.801 216.025 146.809 216.057 146.81 216.09C146.813 216.122 146.809 216.155 146.799 216.186C146.788 216.216 146.772 216.245 146.751 216.269C146.729 216.293 146.703 216.313 146.674 216.327C146.644 216.341 146.612 216.349 146.58 216.35L140.28 216.62H140.27Z" fill="white"/>
<path d="M211.94 218H201.54L190.76 217.49L189.52 210.23C189.52 210.23 199.66 209.34 202.67 210.23C202.67 210.23 210.31 213.93 211.31 215.23C211.604 215.621 211.813 216.07 211.921 216.548C212.03 217.025 212.036 217.52 211.94 218Z" fill="#FF8B7B"/>
<path d="M217.36 160.44C217.36 160.44 216.49 236.44 217.36 256.58C218.27 277.58 223.67 349.58 223.73 349.3H236.65C236.65 349.3 247.36 208.19 248.36 193.35C248.855 183.97 247.541 174.583 244.49 165.7L217.36 160.44Z" fill="#B5CFB7"/>
<path d="M276 168.52C276 168.52 282.37 239.06 283.41 259.14C284.45 279.22 287.24 350 287.24 350L273.5 349.22C273.5 349.22 248.73 207.22 246.17 192.44C243.61 177.66 246.67 168.44 246.67 168.44L276 168.52Z" fill="#B5CFB7"/>
<g opacity="0.2">
<path d="M277.43 188.12C276.304 188.161 275.183 187.964 274.138 187.542C273.094 187.12 272.151 186.482 271.37 185.67C267.52 181.61 268.06 174.02 268.08 173.67H268.58C268.58 173.75 268.04 181.36 271.74 185.26C272.508 186.048 273.438 186.66 274.465 187.055C275.492 187.451 276.592 187.619 277.69 187.55V188.05L277.43 188.12Z" fill="white"/>
</g>
<g opacity="0.2">
<path d="M250.56 192.69C250.114 192.684 249.672 192.606 249.25 192.46L249.41 191.99C250.024 192.242 250.707 192.273 251.341 192.077C251.976 191.882 252.523 191.473 252.89 190.92C253.52 190.022 253.846 188.946 253.82 187.85V173.72H254.32V187.85C254.353 189.051 254.003 190.231 253.32 191.22C253.012 191.669 252.601 192.037 252.12 192.293C251.64 192.549 251.104 192.685 250.56 192.69Z" fill="white"/>
</g>
<g opacity="0.2">
<path d="M249.58 172.65H249.08V199.84H249.58V172.65Z" fill="white"/>
</g>
<g opacity="0.2">
<path d="M277.73 349.73C277.673 349.731 277.617 349.711 277.573 349.674C277.529 349.638 277.5 349.586 277.49 349.53L251.49 201.17C251.478 201.105 251.493 201.038 251.53 200.984C251.568 200.929 251.625 200.892 251.69 200.88C251.723 200.874 251.757 200.875 251.789 200.883C251.822 200.89 251.852 200.904 251.879 200.924C251.906 200.943 251.929 200.968 251.946 200.997C251.964 201.025 251.975 201.057 251.98 201.09L277.98 349.44C277.986 349.473 277.985 349.507 277.977 349.539C277.97 349.572 277.956 349.602 277.936 349.629C277.917 349.656 277.892 349.679 277.863 349.696C277.835 349.714 277.803 349.725 277.77 349.73H277.73Z" fill="white"/>
</g>
<path d="M235.4 349.97L235.13 360.5H226.65L224.73 351.09L235.4 349.97Z" fill="#CE7A63"/>
<path d="M235.62 358.36C235.62 358.36 237.62 358.05 236.99 360.5C236.36 362.95 237.16 368.86 236.56 371.13H210.56C210.56 371.13 210.97 365.51 215.72 365.34C222.09 365.11 225.05 361.43 225.05 361.43C225.98 358.86 227.62 359.73 230.23 360C232.56 360.25 235.62 358.36 235.62 358.36Z" fill="#263238"/>
<path d="M223.32 362.92C223.65 362.961 223.966 363.082 224.239 363.272C224.512 363.462 224.736 363.715 224.89 364.01" fill="black"/>
<path d="M224.89 364.25C224.843 364.248 224.797 364.233 224.758 364.207C224.719 364.18 224.689 364.143 224.67 364.1C224.534 363.837 224.338 363.61 224.098 363.437C223.859 363.263 223.582 363.148 223.29 363.1C223.259 363.098 223.228 363.089 223.201 363.074C223.173 363.06 223.149 363.04 223.129 363.015C223.109 362.991 223.095 362.963 223.086 362.933C223.078 362.902 223.076 362.871 223.08 362.84C223.09 362.777 223.123 362.721 223.173 362.682C223.224 362.643 223.287 362.624 223.35 362.63C223.723 362.677 224.078 362.814 224.385 363.03C224.692 363.246 224.941 363.535 225.11 363.87C225.133 363.928 225.133 363.994 225.108 364.052C225.084 364.11 225.038 364.156 224.98 364.18L224.89 364.25Z" fill="white"/>
<path d="M222 363.46C222.33 363.501 222.646 363.622 222.919 363.812C223.192 364.002 223.416 364.255 223.57 364.55" fill="black"/>
<path d="M223.56 364.79C223.513 364.788 223.467 364.773 223.428 364.747C223.389 364.72 223.359 364.683 223.34 364.64C223.2 364.386 223.003 364.168 222.763 364.004C222.523 363.841 222.248 363.737 221.96 363.7C221.896 363.692 221.838 363.659 221.799 363.608C221.76 363.558 221.742 363.494 221.75 363.43C221.758 363.366 221.791 363.308 221.841 363.269C221.892 363.23 221.956 363.212 222.02 363.22C222.392 363.269 222.746 363.408 223.053 363.623C223.359 363.839 223.609 364.126 223.78 364.46C223.803 364.518 223.803 364.584 223.778 364.642C223.754 364.7 223.708 364.746 223.65 364.77C223.623 364.786 223.591 364.793 223.56 364.79Z" fill="white"/>
<path d="M220.32 364.19C220.65 364.234 220.964 364.355 221.237 364.545C221.51 364.735 221.734 364.987 221.89 365.28" fill="black"/>
<path d="M221.89 365.52C221.842 365.521 221.795 365.507 221.756 365.48C221.717 365.453 221.687 365.415 221.67 365.37C221.53 365.116 221.333 364.898 221.093 364.734C220.853 364.571 220.578 364.467 220.29 364.43C220.258 364.426 220.228 364.416 220.2 364.401C220.172 364.385 220.148 364.364 220.128 364.339C220.109 364.314 220.095 364.285 220.086 364.254C220.078 364.224 220.076 364.192 220.08 364.16C220.09 364.098 220.124 364.042 220.174 364.005C220.225 363.967 220.288 363.951 220.35 363.96C220.722 364.004 221.078 364.139 221.385 364.354C221.692 364.568 221.941 364.856 222.11 365.19C222.133 365.248 222.133 365.314 222.108 365.372C222.084 365.43 222.038 365.476 221.98 365.5C221.953 365.516 221.921 365.523 221.89 365.52Z" fill="white"/>
<path d="M236.77 369.58H211.14C211.105 369.587 211.069 369.587 211.034 369.578C211 369.57 210.967 369.554 210.94 369.531C210.912 369.509 210.89 369.48 210.874 369.448C210.859 369.416 210.851 369.381 210.851 369.345C210.851 369.309 210.859 369.274 210.874 369.242C210.89 369.21 210.912 369.181 210.94 369.159C210.967 369.136 211 369.12 211.034 369.112C211.069 369.103 211.105 369.103 211.14 369.11H236.77C236.805 369.103 236.841 369.103 236.876 369.112C236.91 369.12 236.943 369.136 236.97 369.159C236.998 369.181 237.02 369.21 237.035 369.242C237.051 369.274 237.059 369.309 237.059 369.345C237.059 369.381 237.051 369.416 237.035 369.448C237.02 369.48 236.998 369.509 236.97 369.531C236.943 369.554 236.91 369.57 236.876 369.578C236.841 369.587 236.805 369.587 236.77 369.58Z" fill="white"/>
<path d="M222.13 354.52H238.78L239.01 348.27H221.99L222.13 354.52Z" fill="#263238"/>
<path d="M274.77 349.98L277.48 360.4H285.95L285.7 351.09L274.77 349.98Z" fill="#CE7A63"/>
<path d="M277 358.25C277 358.25 275 357.95 275.63 360.4C276.26 362.85 275.47 368.75 276.07 371.03H302.07C302.07 371.03 301.67 365.4 296.92 365.23C290.55 365.01 287.58 361.33 287.58 361.33C286.65 358.76 285.02 359.62 282.41 359.9C280 360.14 277 358.25 277 358.25Z" fill="#263238"/>
<path d="M289.29 362.81C288.959 362.853 288.643 362.974 288.368 363.164C288.093 363.353 287.868 363.606 287.71 363.9" fill="black"/>
<path d="M287.71 364.14C287.759 364.141 287.807 364.128 287.849 364.101C287.89 364.074 287.922 364.035 287.94 363.99C288.079 363.735 288.277 363.517 288.517 363.353C288.756 363.19 289.032 363.086 289.32 363.05C289.351 363.046 289.382 363.036 289.409 363.021C289.436 363.005 289.46 362.984 289.479 362.958C289.497 362.933 289.511 362.904 289.518 362.873C289.525 362.843 289.526 362.811 289.52 362.78C289.518 362.749 289.509 362.719 289.494 362.692C289.48 362.665 289.459 362.641 289.435 362.622C289.41 362.603 289.382 362.589 289.352 362.582C289.322 362.575 289.29 362.574 289.26 362.58C288.886 362.623 288.529 362.758 288.22 362.973C287.912 363.187 287.661 363.475 287.49 363.81C287.467 363.868 287.467 363.934 287.492 363.992C287.516 364.049 287.562 364.096 287.62 364.12C287.647 364.136 287.679 364.143 287.71 364.14Z" fill="white"/>
<path d="M290.62 363.36C290.288 363.396 289.971 363.515 289.696 363.705C289.422 363.896 289.2 364.152 289.05 364.45" fill="black"/>
<path d="M289.05 364.69C289.097 364.688 289.143 364.673 289.182 364.647C289.221 364.62 289.251 364.583 289.27 364.54C289.409 364.285 289.607 364.067 289.847 363.903C290.087 363.74 290.362 363.636 290.65 363.6C290.682 363.596 290.712 363.586 290.74 363.57C290.767 363.555 290.791 363.534 290.811 363.508C290.83 363.483 290.845 363.455 290.853 363.424C290.862 363.393 290.864 363.361 290.86 363.33C290.856 363.298 290.846 363.268 290.83 363.24C290.815 363.213 290.794 363.189 290.768 363.169C290.743 363.15 290.715 363.135 290.684 363.127C290.653 363.118 290.622 363.116 290.59 363.12C290.216 363.167 289.86 363.304 289.551 363.52C289.243 363.736 288.992 364.025 288.82 364.36C288.797 364.418 288.797 364.484 288.822 364.542C288.846 364.6 288.892 364.646 288.95 364.67L289.05 364.69Z" fill="white"/>
<path d="M292.29 364.09C291.958 364.131 291.641 364.251 291.366 364.441C291.091 364.631 290.866 364.884 290.71 365.18" fill="black"/>
<path d="M290.71 365.42C290.759 365.42 290.807 365.406 290.847 365.379C290.888 365.353 290.92 365.315 290.94 365.27C291.078 365.014 291.275 364.795 291.515 364.631C291.755 364.468 292.031 364.364 292.32 364.33C292.384 364.322 292.442 364.289 292.481 364.239C292.52 364.188 292.538 364.124 292.53 364.06C292.522 363.996 292.489 363.938 292.438 363.899C292.388 363.86 292.324 363.842 292.26 363.85C291.886 363.896 291.529 364.033 291.22 364.249C290.912 364.465 290.661 364.754 290.49 365.09C290.467 365.148 290.467 365.214 290.492 365.272C290.516 365.33 290.562 365.376 290.62 365.4L290.71 365.42Z" fill="white"/>
<path d="M275.83 369.48H301.46C301.524 369.48 301.585 369.455 301.63 369.41C301.675 369.365 301.7 369.304 301.7 369.24C301.7 369.176 301.675 369.115 301.63 369.07C301.585 369.025 301.524 369 301.46 369H275.83C275.766 369 275.705 369.025 275.66 369.07C275.615 369.115 275.59 369.176 275.59 369.24C275.59 369.304 275.615 369.365 275.66 369.41C275.705 369.455 275.766 369.48 275.83 369.48Z" fill="white"/>
<path d="M289.66 354.52L272.41 354.72L271.27 348.48L289.44 348.27L289.66 354.52Z" fill="#263238"/>
<path d="M270.24 76.23L273.67 80.51L277.17 84.84C279.5 87.72 281.87 90.55 284.25 93.3C286.63 96.05 289.03 98.72 291.47 101.06C292.67 102.23 293.86 103.35 294.99 104.25C295.54 104.7 296.08 105.11 296.54 105.42C296.79 105.61 296.95 105.68 297.16 105.83L297.36 105.95L297.45 106.01H297.5C297.5 106.01 297.4 106.01 297.36 106.01C296.3 105.78 296.2 106.01 296.36 106.01C296.794 106.03 297.229 105.986 297.65 105.88C299.089 105.538 300.498 105.077 301.86 104.5C305.127 103.131 308.315 101.582 311.41 99.86C317.85 96.33 324.41 92.28 330.79 88.32L337.23 95.9C331.812 101.799 325.945 107.269 319.68 112.26C316.408 114.896 312.953 117.295 309.34 119.44C307.287 120.661 305.128 121.695 302.89 122.53C301.483 123.062 300.025 123.451 298.54 123.69C296.306 124.081 294.013 123.965 291.83 123.35C290.302 122.87 288.822 122.247 287.41 121.49C286.19 120.85 285.12 120.2 284.1 119.49C282.202 118.233 280.376 116.871 278.63 115.41C275.426 112.709 272.374 109.831 269.49 106.79C266.65 103.85 264 100.79 261.42 97.74C260.16 96.19 258.89 94.64 257.67 93.05L255.85 90.65L254.05 88.14L270.24 76.23Z" fill="#263238"/>
<path d="M330.81 88.3C330.81 88.3 335.23 84.53 336.81 81.93C338.39 79.33 346.7 87.93 346.81 89.16C346.92 90.39 337.26 95.88 337.26 95.88L330.81 88.3Z" fill="#CE7A63"/>
<path d="M335.89 81.8C335.89 81.8 343.66 72.05 345.6 71C347.54 69.95 342.54 79.19 342.54 79.19C342.54 79.19 349.26 82.92 349.41 85.39C349.56 87.86 348.14 90.17 346.5 90.62C345.97 90.7046 345.426 90.6453 344.927 90.4483C344.427 90.2513 343.99 89.9238 343.66 89.5L335.89 81.8Z" fill="#CE7A63"/>
<path d="M332.4 87.81C332.4 87.81 333.04 77.75 334.68 77.53C336.32 77.31 339.68 82.4 339.68 82.4L332.4 87.81Z" fill="#CE7A63"/>
<path d="M237.18 69.86C237.18 69.86 218.18 76.37 216.95 81.18C215.72 85.99 218.73 123.61 218.89 130.77C219.05 137.93 213.18 164.39 217.25 169.47C221.61 174.92 275.8 177.91 276.74 171.42C277.96 163.02 274.93 135.97 275.25 126.57C275.57 117.17 272.64 79.88 270.57 76.26C268.5 72.64 249.69 70.7 249.69 70.7L237.18 69.86Z" fill="#263238"/>
<g opacity="0.2">
<path d="M219.93 170.26C218.45 166.26 220.77 151.54 222.48 140.78C222.9 138.09 223.27 135.78 223.48 133.93C224.74 124.93 221.24 104.81 221.2 104.6L221.69 104.52C221.69 104.72 225.24 124.96 223.98 134C223.72 135.84 223.36 138.17 222.93 140.86C221.33 150.96 218.93 166.23 220.36 170.08L219.93 170.26Z" fill="white"/>
</g>
<path d="M234.81 45C234.81 45 232.33 37.55 233.29 34.52C234.25 31.49 236.39 31.09 236.39 31.09C236.39 31.09 237.6 23.03 245.57 23.51C253.54 23.99 262.8 21.12 264.57 25.27C266.34 29.42 260.01 32.13 260.01 32.13C260.01 32.13 262.51 35.13 261.56 37.55C260.61 39.97 258.4 37.71 258.4 37.71L234.81 45Z" fill="#263238"/>
<path d="M252.18 73.9C251.3 75.07 250.3 77.4 246.8 77.9C242.39 78.49 237.35 73.83 236.8 71.9C238.05 65.59 238.8 58.31 237.8 52.59L243.55 57.38L251.9 64.33C251.9 64.48 251.81 64.65 251.76 64.8C251.71 64.95 251.67 65.22 251.62 65.43C251.506 65.9349 251.419 66.4457 251.36 66.96C251.31 67.37 251.28 67.78 251.27 68.18C251.235 69.3879 251.339 70.5958 251.58 71.78C251.722 72.5017 251.923 73.2107 252.18 73.9Z" fill="#CE7A63"/>
<path d="M246.42 87.33C244.47 87.3472 242.576 86.6782 241.07 85.44C235.84 81.19 235.18 71.35 235.16 70.93C235.156 70.8974 235.158 70.8642 235.168 70.8328C235.178 70.8013 235.194 70.7723 235.216 70.7476C235.238 70.723 235.264 70.7033 235.294 70.6899C235.325 70.6765 235.357 70.6697 235.39 70.67C235.423 70.6658 235.457 70.6686 235.489 70.6781C235.521 70.6877 235.55 70.7038 235.576 70.7254C235.601 70.7471 235.622 70.7738 235.636 70.8038C235.651 70.8339 235.659 70.8666 235.66 70.9C235.66 71 236.32 80.9 241.39 85.05C242.284 85.7783 243.326 86.3046 244.442 86.5929C245.559 86.8811 246.725 86.9245 247.86 86.72C248.701 86.6304 249.511 86.3507 250.228 85.9019C250.946 85.4532 251.551 84.8473 252 84.13C254.76 79.66 252 71.13 251.95 70.99C251.938 70.9593 251.932 70.9263 251.933 70.8932C251.935 70.8601 251.944 70.8277 251.959 70.7983C251.974 70.7688 251.995 70.743 252.021 70.7226C252.048 70.7022 252.078 70.6877 252.11 70.68C252.141 70.6692 252.174 70.6648 252.206 70.6671C252.239 70.6693 252.27 70.6782 252.299 70.6932C252.328 70.7082 252.354 70.7289 252.375 70.7542C252.396 70.7794 252.411 70.8086 252.42 70.84C252.54 71.2 255.31 79.73 252.42 84.39C251.937 85.1739 251.279 85.836 250.499 86.325C249.719 86.814 248.836 87.1168 247.92 87.21C247.424 87.2884 246.922 87.3285 246.42 87.33Z" fill="white"/>
<g opacity="0.2">
<path d="M251.56 71.78C248.44 71.13 244.56 68.6 243.44 65.43C242.7 63.37 243.44 61.27 244.24 61.05L251.34 66.96C251.29 67.37 251.26 67.78 251.25 68.18C251.215 69.3879 251.319 70.5958 251.56 71.78Z" fill="black"/>
</g>
<path d="M235.43 42C235.267 39.8092 235.666 37.613 236.59 35.6197C237.514 33.6264 238.931 31.902 240.708 30.61C242.484 29.3179 244.562 28.5011 246.743 28.2368C248.924 27.9726 251.136 28.2697 253.17 29.1C262.41 32.84 263.73 46.83 261.72 55.31C259.49 64.73 247.86 69.07 240.72 61.81C235.95 56.98 236.08 51.43 235.47 42" fill="#CE7A63"/>
<g opacity="0.2">
<path d="M243.89 36.61C243.89 36.61 245.7 40.41 243.13 41.43C240.56 42.45 243.13 47.07 243.13 47.07L237.74 49.07C236.019 47.2181 235.04 44.7975 234.99 42.27C234.99 38.18 235.22 35.47 235.22 35.47L243.89 36.61Z" fill="black"/>
</g>
<path d="M235 36.78C235 36.78 240.75 38.38 243.14 37.26C245.53 36.14 241.86 34.39 243.7 32.87C245.54 31.35 255.81 32.01 258.7 33.52C261.59 35.03 258.87 28.09 253.13 27.21C247.39 26.33 236 27.61 235 36.78Z" fill="#263238"/>
<path d="M239.12 48.43C239.12 48.43 233.64 53.5 238.22 61.05C241.12 65.83 249.22 69.94 254.3 69.21C261.49 68.21 262.16 52.98 262.16 52.98C261.547 52.3303 260.726 51.917 259.839 51.8128C258.952 51.7086 258.057 51.92 257.31 52.41C254.58 54.16 252.08 50.58 249.88 50.58C247.68 50.58 245.57 53.94 243.88 52.58C242.19 51.22 243.12 47.07 243.12 47.07L239.12 48.43Z" fill="#263238"/>
<path d="M231.4 48.25C232.08 50.5274 233.633 52.4434 235.72 53.58C238.49 55.06 240.56 52.74 240.36 49.77C240.17 47.09 238.51 43.09 235.45 42.83C232.39 42.57 230.6 45.45 231.45 48.25" fill="#CE7A63"/>
<path d="M249.88 46.54C249.88 47.31 250.29 47.93 250.79 47.93C251.29 47.93 251.7 47.31 251.7 46.54C251.7 45.77 251.29 45.15 250.78 45.15C250.27 45.15 249.88 45.77 249.88 46.54Z" fill="#263238"/>
<path d="M258.29 46.42C258.29 47.19 258.7 47.81 259.21 47.81C259.72 47.81 260.11 47.18 260.11 46.42C260.11 45.66 259.7 45.03 259.2 45.03C258.7 45.03 258.29 45.65 258.29 46.42Z" fill="#263238"/>
<path d="M250.52 53.5C252.928 54.429 255.535 54.7251 258.09 54.36C258.09 54.36 257.6 57.68 254.55 57.74C250.87 57.83 250.52 53.5 250.52 53.5Z" fill="white"/>
<path d="M261 43.05C260.934 43.0529 260.869 43.0364 260.812 43.0027C260.755 42.9689 260.709 42.9194 260.68 42.86C260.564 42.6223 260.4 42.411 260.198 42.239C259.997 42.067 259.763 41.9381 259.51 41.86C258.989 41.7543 258.447 41.8357 257.98 42.09C257.938 42.115 257.891 42.1314 257.843 42.1384C257.795 42.1453 257.745 42.1427 257.698 42.1306C257.651 42.1186 257.606 42.0973 257.567 42.068C257.528 42.0387 257.495 42.002 257.47 41.96C257.445 41.918 257.429 41.8715 257.422 41.8231C257.415 41.7747 257.417 41.7254 257.429 41.6781C257.441 41.6307 257.463 41.5862 257.492 41.5471C257.521 41.5079 257.558 41.475 257.6 41.45C258.238 41.0908 258.984 40.977 259.7 41.13C260.051 41.2343 260.377 41.4098 260.657 41.6455C260.938 41.8812 261.167 42.172 261.33 42.5C261.377 42.5865 261.389 42.6882 261.363 42.7834C261.337 42.8785 261.275 42.9598 261.19 43.01C261.131 43.0377 261.066 43.0513 261 43.05Z" fill="#263238"/>
<path d="M247.9 43.35C247.844 43.3591 247.786 43.3591 247.73 43.35C247.642 43.305 247.576 43.2276 247.544 43.1344C247.512 43.0411 247.518 42.9391 247.56 42.85C247.898 42.198 248.464 41.6927 249.15 41.43C249.499 41.3276 249.865 41.297 250.226 41.34C250.586 41.3829 250.935 41.4986 251.25 41.68C251.338 41.727 251.405 41.8061 251.437 41.901C251.469 41.996 251.462 42.0994 251.42 42.19C251.373 42.2785 251.293 42.3449 251.198 42.3748C251.102 42.4048 250.999 42.3959 250.91 42.35C250.684 42.2129 250.433 42.1236 250.172 42.0875C249.91 42.0513 249.644 42.0692 249.39 42.14C248.9 42.3303 248.49 42.6834 248.23 43.14C248.201 43.2031 248.155 43.2565 248.096 43.2937C248.037 43.331 247.969 43.3505 247.9 43.35Z" fill="#263238"/>
<path d="M255 45.3C255.427 46.8454 256.292 48.2345 257.49 49.3C259.42 50.91 255.62 52.36 255.62 52.36L255 45.3Z" fill="#BA4D3C"/>
<path d="M233.35 92.56L216.86 109.24C214.17 112.05 211.44 114.8 208.86 117.63C206.383 120.258 204.046 123.015 201.86 125.89C201.37 126.54 200.93 127.17 200.59 127.69C200.25 128.21 200.02 128.69 200 128.56C199.98 128.43 200 128.43 200 128.2V128.05C200.005 127.967 200.005 127.883 200 127.8C200 127.63 200 127.45 200 127.32C199.974 126.988 199.883 126.665 199.73 126.37C199.59 126.19 199.68 126.57 199.93 127.02C200.692 128.278 201.591 129.449 202.61 130.51C203.77 131.76 205.06 133.04 206.42 134.31C211.9 139.31 218.24 144.23 224.42 148.96L219.6 157.66C215.67 156.07 211.99 154.33 208.27 152.43C204.496 150.506 200.824 148.386 197.27 146.08C195.46 144.88 193.65 143.62 191.86 142.16C189.856 140.575 188.022 138.786 186.39 136.82C185.253 135.441 184.333 133.896 183.66 132.24C183.158 131.004 182.848 129.699 182.74 128.37C182.715 127.96 182.715 127.55 182.74 127.14V126.51L182.79 126C182.86 125.381 182.963 124.767 183.1 124.16C183.506 122.543 184.075 120.972 184.8 119.47C185.39 118.23 185.98 117.13 186.58 116.09C188.871 112.318 191.393 108.692 194.13 105.23C196.76 101.92 199.4 98.71 202.13 95.64C204.86 92.57 207.67 89.56 210.52 86.64C213.37 83.72 216.25 80.86 219.37 78.04L233.35 92.56Z" fill="#263238"/>
<path d="M217.85 144.22C217.85 144.22 223.38 147.78 223.74 151.11C224.1 154.44 221.63 162.11 219.31 161.75C216.99 161.39 215.23 161.01 214.16 157.66C213.09 154.31 217.85 144.22 217.85 144.22Z" fill="#CE7A63"/>
<g opacity="0.2">
<path d="M217.13 188.11V187.62C227.07 186.82 226.77 172.45 226.76 172.31H227.26C227.23 172.44 227.54 187.28 217.13 188.11Z" fill="white"/>
</g>
<path d="M236.91 220.84H176.25C175.915 220.838 175.585 220.757 175.288 220.603C174.99 220.45 174.733 220.227 174.538 219.955C174.343 219.683 174.215 219.368 174.165 219.037C174.115 218.706 174.144 218.368 174.25 218.05L187.42 177.93C187.558 177.507 187.825 177.137 188.184 176.874C188.543 176.61 188.975 176.465 189.42 176.46H250.08C250.415 176.462 250.745 176.543 251.042 176.697C251.34 176.851 251.597 177.073 251.792 177.345C251.987 177.617 252.115 177.932 252.165 178.263C252.215 178.594 252.186 178.932 252.08 179.25L238.91 219.38C238.769 219.801 238.501 220.167 238.143 220.429C237.784 220.69 237.354 220.834 236.91 220.84Z" fill="#B5CFB7"/>
<g opacity="0.6">
<path d="M236.91 220.84H176.25C175.915 220.838 175.585 220.757 175.288 220.603C174.99 220.45 174.733 220.227 174.538 219.955C174.343 219.683 174.215 219.368 174.165 219.037C174.115 218.706 174.144 218.368 174.25 218.05L187.42 177.93C187.558 177.507 187.825 177.137 188.184 176.874C188.543 176.61 188.975 176.465 189.42 176.46H250.08C250.415 176.462 250.745 176.543 251.042 176.697C251.34 176.851 251.597 177.073 251.792 177.345C251.987 177.617 252.115 177.932 252.165 178.263C252.215 178.594 252.186 178.932 252.08 179.25L238.91 219.38C238.769 219.801 238.501 220.167 238.143 220.429C237.784 220.69 237.354 220.834 236.91 220.84Z" fill="white"/>
</g>
<g opacity="0.5">
<path d="M219.2 199.43C218.928 200.755 218.215 201.95 217.179 202.819C216.142 203.689 214.842 204.182 213.49 204.22C212.888 204.243 212.288 204.128 211.737 203.884C211.186 203.639 210.699 203.271 210.312 202.808C209.926 202.346 209.651 201.801 209.508 201.215C209.366 200.629 209.359 200.019 209.49 199.43C209.76 198.105 210.47 196.909 211.504 196.038C212.539 195.167 213.838 194.67 215.19 194.63C215.791 194.616 216.387 194.738 216.934 194.987C217.481 195.235 217.965 195.603 218.351 196.064C218.736 196.526 219.012 197.068 219.159 197.65C219.306 198.233 219.32 198.841 219.2 199.43Z" fill="white"/>
</g>
<path d="M154.64 220L153.36 223.86C153.27 224.132 153.245 224.422 153.289 224.705C153.333 224.989 153.443 225.258 153.611 225.49C153.779 225.723 154 225.912 154.255 226.042C154.511 226.173 154.793 226.24 155.08 226.24H235.42C235.801 226.244 236.174 226.125 236.483 225.902C236.793 225.679 237.023 225.363 237.14 225L238.81 220H154.64Z" fill="#B5CFB7"/>
<g opacity="0.6">
<path d="M154.64 220L153.36 223.86C153.27 224.132 153.245 224.422 153.289 224.705C153.333 224.989 153.443 225.258 153.611 225.49C153.779 225.723 154 225.912 154.255 226.042C154.511 226.173 154.793 226.24 155.08 226.24H235.42C235.801 226.244 236.174 226.125 236.483 225.902C236.793 225.679 237.023 225.363 237.14 225L238.81 220H154.64Z" fill="white"/>
</g>
<path d="M238.64 220.2H174.51C174.444 220.2 174.38 220.174 174.333 220.127C174.286 220.08 174.26 220.016 174.26 219.95C174.26 219.884 174.286 219.82 174.333 219.773C174.38 219.726 174.444 219.7 174.51 219.7H238.64C238.706 219.7 238.77 219.726 238.817 219.773C238.864 219.82 238.89 219.884 238.89 219.95C238.89 220.016 238.864 220.08 238.817 220.127C238.77 220.174 238.706 220.2 238.64 220.2Z" fill="#B5CFB7"/>
<path d="M279.1 220.84H339.76C340.095 220.838 340.425 220.757 340.722 220.603C341.02 220.45 341.277 220.227 341.472 219.955C341.667 219.683 341.795 219.368 341.845 219.037C341.895 218.706 341.866 218.368 341.76 218.05L328.59 177.93C328.452 177.507 328.185 177.137 327.826 176.874C327.467 176.61 327.035 176.465 326.59 176.46H265.93C265.596 176.464 265.267 176.546 264.971 176.701C264.675 176.855 264.419 177.077 264.224 177.349C264.029 177.62 263.901 177.934 263.85 178.264C263.799 178.595 263.826 178.932 263.93 179.25L277.1 219.38C277.241 219.801 277.509 220.167 277.867 220.429C278.226 220.69 278.656 220.834 279.1 220.84Z" fill="#B5CFB7"/>
<g opacity="0.6">
<path d="M279.1 220.84H339.76C340.095 220.838 340.425 220.757 340.722 220.603C341.02 220.45 341.277 220.227 341.472 219.955C341.667 219.683 341.795 219.368 341.845 219.037C341.895 218.706 341.866 218.368 341.76 218.05L328.59 177.93C328.452 177.507 328.185 177.137 327.826 176.874C327.467 176.61 327.035 176.465 326.59 176.46H265.93C265.596 176.464 265.267 176.546 264.971 176.701C264.675 176.855 264.419 177.077 264.224 177.349C264.029 177.62 263.901 177.934 263.85 178.264C263.799 178.595 263.826 178.932 263.93 179.25L277.1 219.38C277.241 219.801 277.509 220.167 277.867 220.429C278.226 220.69 278.656 220.834 279.1 220.84Z" fill="white"/>
</g>
<g opacity="0.4">
<path d="M284.58 216.76H334.1C334.373 216.759 334.642 216.694 334.886 216.57C335.129 216.445 335.339 216.265 335.499 216.043C335.659 215.822 335.764 215.565 335.806 215.296C335.848 215.026 335.825 214.75 335.74 214.49L325 181.74C324.886 181.392 324.666 181.088 324.369 180.873C324.073 180.657 323.716 180.541 323.35 180.54H273.83C273.556 180.541 273.285 180.606 273.041 180.731C272.797 180.856 272.585 181.038 272.425 181.26C272.264 181.482 272.158 181.739 272.115 182.011C272.073 182.282 272.095 182.559 272.18 182.82L282.94 215.57C283.052 215.916 283.271 216.218 283.566 216.432C283.861 216.646 284.216 216.761 284.58 216.76Z" fill="white"/>
</g>
<path d="M361.37 220L362.65 223.86C362.74 224.132 362.765 224.422 362.721 224.705C362.677 224.989 362.567 225.258 362.399 225.49C362.231 225.723 362.01 225.912 361.755 226.042C361.499 226.173 361.217 226.24 360.93 226.24H280.59C280.209 226.244 279.836 226.125 279.527 225.902C279.217 225.679 278.987 225.363 278.87 225L277.2 220H361.37Z" fill="#B5CFB7"/>
<g opacity="0.4">
<path d="M361.37 220L362.65 223.86C362.74 224.132 362.765 224.422 362.721 224.705C362.677 224.989 362.567 225.258 362.399 225.49C362.231 225.723 362.01 225.912 361.755 226.042C361.499 226.173 361.217 226.24 360.93 226.24H280.59C280.209 226.244 279.836 226.125 279.527 225.902C279.217 225.679 278.987 225.363 278.87 225L277.2 220H361.37Z" fill="white"/>
</g>
<path d="M395.93 226.19H152.47V233.55H395.93V226.19Z" fill="black"/>
<g opacity="0.8">
<path d="M395.93 226.19H152.47V233.55H395.93V226.19Z" fill="white"/>
</g>
<path d="M168.55 233.55L146.68 371.08L151.07 371.18L178.17 233.55H168.55Z" fill="black"/>
<g opacity="0.8">
<path d="M168.55 233.55L146.68 371.07L151.07 371.18L178.17 233.55H168.55Z" fill="white"/>
</g>
<path d="M375.65 233.55L397.52 371.08L393.13 371.18L366.03 233.55H375.65Z" fill="black"/>
<g opacity="0.8">
<path d="M375.65 233.55L397.52 371.07L393.13 371.18L366.03 233.55H375.65Z" fill="white"/>
</g>
<path d="M370.89 241.16H168.83V243.98H370.89V241.16Z" fill="black"/>
<g opacity="0.8">
<path d="M370.89 241.16H168.83V243.98H370.89V241.16Z" fill="white"/>
</g>
<path d="M396.92 238.63C396.92 238.63 408.34 264.52 383.84 271.05C367.09 275.52 342.69 264.27 331.89 267.83C331.89 267.83 336.6 269.49 342.05 287.73C347.5 305.97 356.85 340.03 356.85 340.03L343.85 340.56C343.85 340.56 309.11 269.64 308.41 256.77C307.71 243.9 372 234.67 372 234.67L396.92 238.63Z" fill="#263238"/>
<path d="M424.86 242.29C424.86 242.29 435.86 270.05 410.47 272.73C390.77 274.81 372.73 272.9 358.15 271.37C358.15 271.37 365.29 271.72 370.74 289.96C376.19 308.2 386.41 340.16 386.41 340.16H370.41C370.41 340.16 329.49 270.36 328.79 257.49C328.09 244.62 396.93 238.58 396.93 238.58L424.86 242.29Z" fill="#263238"/>
<g opacity="0.2">
<path d="M352.84 341.92C351.73 338.92 325.5 268.92 325.5 264.5C325.5 260.08 364.44 254.87 368.88 254.3L368.94 254.8C351.68 257 326 261.45 326 264.5C326 268.79 353 341.02 353.31 341.75L352.84 341.92Z" fill="white"/>
</g>
<path d="M384.9 341.83L386.94 352.23H378.47L373.67 343.03L384.9 341.83Z" fill="#B55B52"/>
<path d="M386.94 350.49C387.25 353.01 378.86 350.92 378.01 352.23C377.16 353.54 376.01 357.92 374.72 360.13C373.43 362.34 366.03 369.44 366.03 369.44H381.78L384.16 366.01L384.94 369.44H389.29C389.29 369.44 387.64 352.26 386.94 350.49Z" fill="#263238"/>
<path d="M369.21 346.33H389.29L388.02 340.16H367.95L369.21 346.33Z" fill="#263238"/>
<g opacity="0.3">
<path d="M369.21 346.33H389.29L388.02 340.16H367.95L369.21 346.33Z" fill="white"/>
</g>
<path d="M352.42 138.5C352.344 138.527 352.263 138.534 352.184 138.52C352.105 138.506 352.031 138.471 351.97 138.42C351.875 138.34 351.815 138.226 351.804 138.102C351.793 137.979 351.831 137.856 351.91 137.76C352.371 137.184 352.965 136.728 353.641 136.432C354.316 136.136 355.054 136.008 355.79 136.06C355.85 136.066 355.908 136.084 355.961 136.114C356.014 136.143 356.061 136.182 356.098 136.23C356.136 136.278 356.163 136.332 356.179 136.391C356.195 136.449 356.198 136.51 356.19 136.57C356.184 136.631 356.166 136.689 356.136 136.743C356.107 136.796 356.068 136.843 356.021 136.882C355.973 136.92 355.919 136.948 355.86 136.965C355.802 136.982 355.74 136.987 355.68 136.98C355.097 136.952 354.516 137.062 353.984 137.302C353.452 137.542 352.985 137.904 352.62 138.36C352.572 138.429 352.501 138.479 352.42 138.5Z" fill="#263238"/>
<path d="M353.29 140.52C352.931 142.372 352.319 144.166 351.47 145.85C351.906 146.055 352.383 146.161 352.865 146.161C353.347 146.161 353.824 146.055 354.26 145.85L353.29 140.52Z" fill="#A02724"/>
<path d="M354.51 140.75C354.72 141.51 354.51 142.24 354 142.39C353.49 142.54 352.93 142.03 352.71 141.27C352.49 140.51 352.71 139.78 353.21 139.64C353.71 139.5 354.29 139.99 354.51 140.75Z" fill="#263238"/>
<path d="M353.44 139.62H351.44C351.44 139.62 352.78 140.77 353.44 139.62Z" fill="#263238"/>
<path d="M353.5 128.13C353.5 128.13 349.15 129.24 352.72 135.77L355.97 129.09L353.5 128.13Z" fill="#263238"/>
<path d="M372.05 121.2C372.05 121.2 368.35 106.73 380.15 107.8C391.95 108.87 389.87 118.8 389.87 118.8C389.87 118.8 396.98 119.05 393.76 127.2C390.54 135.35 377.86 130.15 377.86 130.15C374.84 128.2 373.07 125.05 372.05 121.2Z" fill="#263238"/>
<path d="M377.14 164.24C374.676 163.911 372.171 164.344 369.96 165.48C371.43 162.7 370.2 159.55 368.55 156.68L376.72 144.39C377.22 150.39 379.07 161.04 384.1 163.69C384.1 163.69 385.75 165.12 377.14 164.24Z" fill="#B55B52"/>
<g opacity="0.2">
<path d="M373.39 149.4L368.55 156.67C369.114 157.626 369.593 158.63 369.98 159.67C372.29 158.67 374.85 155.05 374.39 152.45C374.24 151.398 373.901 150.382 373.39 149.45" fill="black"/>
</g>
<path d="M378.9 132.91C380.01 142.33 380.69 146.3 376.9 151.91C371.12 160.39 359.3 159.7 355.39 150.8C351.86 142.8 350.63 128.71 359.08 123.35C360.942 122.172 363.072 121.486 365.272 121.357C367.471 121.229 369.667 121.661 371.654 122.614C373.64 123.566 375.352 125.008 376.628 126.804C377.904 128.6 378.703 130.691 378.95 132.88" fill="#B55B52"/>
<path d="M364.14 119.27C364.14 119.27 372.72 116.88 378.67 122.27C384.62 127.66 386.19 141.81 377.26 151.27C377.54 154.14 365.13 155.58 361.26 147.54C359.86 144.62 357.87 142.73 356.94 132.64L353.34 131.78C350.35 130.52 350.65 118.43 364.14 119.27Z" fill="#263238"/>
<path d="M365.64 140.42C365.314 142.224 364.285 143.824 362.78 144.87C360.78 146.25 358.98 144.64 358.89 142.33C358.81 140.26 359.75 137.05 362.08 136.6C362.591 136.509 363.117 136.548 363.609 136.712C364.102 136.877 364.545 137.162 364.899 137.542C365.253 137.922 365.506 138.384 365.636 138.887C365.765 139.389 365.767 139.917 365.64 140.42Z" fill="#B55B52"/>
<path d="M359.73 145.34C359.803 145.645 359.965 145.921 360.195 146.133C360.425 146.346 360.714 146.485 361.023 146.533C361.333 146.581 361.65 146.537 361.934 146.404C362.218 146.272 362.456 146.058 362.618 145.79C362.78 145.522 362.859 145.212 362.845 144.899C362.83 144.586 362.723 144.284 362.537 144.032C362.351 143.781 362.094 143.59 361.798 143.484C361.503 143.379 361.184 143.363 360.88 143.44C360.477 143.542 360.13 143.798 359.915 144.154C359.7 144.51 359.633 144.936 359.73 145.34Z" fill="white"/>
<path d="M382.55 131.67C371.15 130.67 371.26 118.86 371.27 118.74C371.269 118.705 371.274 118.671 371.287 118.639C371.299 118.607 371.319 118.577 371.343 118.553C371.367 118.529 371.397 118.509 371.429 118.497C371.461 118.484 371.495 118.479 371.53 118.48C371.565 118.48 371.6 118.487 371.632 118.501C371.664 118.514 371.693 118.534 371.717 118.56C371.742 118.585 371.761 118.615 371.773 118.647C371.786 118.68 371.791 118.715 371.79 118.75C371.79 119.21 371.69 130.14 382.6 131.15C382.669 131.15 382.735 131.177 382.784 131.226C382.833 131.275 382.86 131.341 382.86 131.41C382.86 131.479 382.833 131.545 382.784 131.594C382.735 131.643 382.669 131.67 382.6 131.67H382.55Z" fill="#B5CFB7"/>
<path d="M371.5 122.13C370.14 122 363.3 121.25 362.7 119.57C362.649 119.389 362.653 119.198 362.712 119.019C362.771 118.841 362.881 118.685 363.03 118.57C365.32 116.32 371.79 121.46 372.03 121.68C372.054 121.703 372.073 121.731 372.087 121.762C372.1 121.793 372.106 121.826 372.106 121.86C372.106 121.894 372.1 121.927 372.087 121.958C372.073 121.989 372.054 122.017 372.03 122.04C371.982 122.086 371.917 122.112 371.85 122.112C371.783 122.112 371.718 122.086 371.67 122.04C371.65 122.066 371.624 122.088 371.595 122.104C371.565 122.119 371.533 122.128 371.5 122.13ZM364.58 118.5C364.358 118.486 364.136 118.517 363.926 118.591C363.717 118.665 363.524 118.78 363.36 118.93C363.09 119.19 363.15 119.35 363.16 119.4C363.52 120.4 367.99 121.23 371.04 121.56C369.36 120.33 366.44 118.5 364.58 118.5Z" fill="#B5CFB7"/>
<path d="M371.5 121.56C371.433 121.56 371.368 121.534 371.32 121.487C371.271 121.441 371.243 121.377 371.24 121.31C371.2 121.31 371.161 121.3 371.126 121.28C371.091 121.261 371.062 121.234 371.04 121.2C370.25 120.08 366.33 114.43 367.21 112.88C367.311 112.713 367.462 112.582 367.641 112.507C367.821 112.431 368.02 112.415 368.21 112.46C371.41 112.71 371.76 120.97 371.78 121.32C371.781 121.354 371.776 121.388 371.764 121.42C371.752 121.452 371.734 121.482 371.711 121.507C371.688 121.532 371.66 121.552 371.629 121.566C371.598 121.581 371.564 121.589 371.53 121.59L371.5 121.56ZM368.05 112.94C367.76 112.94 367.69 113.06 367.66 113.1C367.14 114.03 369.44 117.95 371.19 120.47C370.98 117.84 370.19 113.11 368.19 112.94H368.05Z" fill="#B5CFB7"/>
<path d="M404.74 230C398.04 241.77 357.99 240.14 355.79 237.62C353.59 235.1 362.24 204.35 362.22 196.78C362.17 189.25 354.56 180.67 357.36 175.1C358.749 172.73 360.535 170.616 362.64 168.85C364.405 167.269 366.251 165.78 368.17 164.39L368.53 164.14C368.88 163.88 369.2 163.66 369.48 163.47C370.14 163.01 370.54 162.76 370.54 162.76C375.09 161.701 379.713 160.986 384.37 160.62L385.63 160.55C388.325 160.366 391.032 160.517 393.69 161C402.26 162.8 403.69 170.41 403.99 178.91C404.29 187.41 411.44 218.24 404.74 230Z" fill="#B5CFB7"/>
<g opacity="0.2">
<path d="M360.37 238.65H359.88C360.37 231.34 369.79 190.77 369.88 190.36L370.37 190.48C370.27 190.85 360.87 231.37 360.37 238.65Z" fill="white"/>
</g>
<g opacity="0.2">
<path d="M385.65 160.51C385.65 160.51 385.65 160.56 385.65 160.59C385.25 162.16 380.01 166.36 375.19 166.2C370.86 166.05 368.6 164.66 368.19 164.37L368.55 164.12C368.9 163.86 369.22 163.64 369.5 163.45C371.814 164.158 374.233 164.459 376.65 164.34C379.619 164.168 382.398 162.827 384.38 160.61L385.65 160.51Z" fill="black"/>
</g>
<path d="M374.32 181.4C373.62 191.49 366.04 195.4 362.22 196.79C362.17 189.26 354.56 180.68 357.36 175.11C358.749 172.74 360.535 170.626 362.64 168.86C367.84 169.81 374.93 172.74 374.32 181.4Z" fill="#B55B52"/>
<path d="M370.37 179.16C369.351 185.579 367.918 191.926 366.08 198.16C365.145 201.418 364.006 204.614 362.67 207.73C361.915 209.512 361.012 211.228 359.97 212.86C359.27 213.947 358.452 214.953 357.53 215.86L357.07 216.28L356.53 216.72C356.148 217.015 355.743 217.279 355.32 217.51C354.96 217.71 354.6 217.89 354.23 218.07L353.32 218.42C353 218.55 352.73 218.63 352.47 218.71L351.68 218.94C351.17 219.07 350.68 219.17 350.2 219.28L348.82 219.52L347.49 219.71C345.75 219.92 344.08 220.05 342.42 220.14C339.12 220.31 335.9 220.3 332.7 220.23C326.29 220.08 320.54 220.34 314.2 219.53L313.75 212.53C319.9 211.83 326.11 210.38 332.17 209.63C335.17 209.24 338.22 208.82 341.12 208.3C342.57 208.05 343.99 207.77 345.32 207.45L346.32 207.2L347.23 206.93L348.01 206.66L348.33 206.53C348.417 206.498 348.501 206.458 348.58 206.41L348.75 206.31H348.69C348.69 206.31 348.48 206.43 348.45 206.46L348.36 206.52C348.477 206.28 348.607 206.046 348.75 205.82C349.294 204.764 349.771 203.675 350.18 202.56C351.11 200.04 351.92 197.21 352.67 194.36C354.16 188.65 355.43 182.6 356.67 176.79L370.37 179.16Z" fill="#B55B52"/>
<path d="M294.24 220L303.86 219.53H314.2L315.37 212.68C315.37 212.68 305.81 211.85 302.98 212.68C302.98 212.68 295.78 216.16 294.83 217.4C294.555 217.768 294.36 218.189 294.258 218.637C294.156 219.085 294.15 219.549 294.24 220Z" fill="#B55B52"/>
<path d="M369.56 163.57C369.56 163.57 369.19 161.45 370.42 160.78C371.65 160.11 376.81 156.24 378.86 155.99C380.91 155.74 382.97 160.66 384.38 160.58C385.79 160.5 373.05 164.64 369.56 163.57Z" fill="#B5CFB7"/>
<path d="M450.27 166.83C457.1 169.73 458.37 174.36 457.5 181.33C455.19 199.85 449.33 244.33 445.56 251.05C440.77 259.57 373.67 260.45 370.25 252.69C366.83 244.93 377.47 179.46 383.25 173.27C388 168.12 430.74 158.51 450.27 166.83Z" fill="black"/>
<g opacity="0.6">
<path d="M450.27 166.83C457.1 169.73 458.37 174.36 457.5 181.33C455.19 199.85 449.33 244.33 445.56 251.05C440.77 259.57 373.67 260.45 370.25 252.69C366.83 244.93 377.47 179.46 383.25 173.27C388 168.12 430.74 158.51 450.27 166.83Z" fill="white"/>
</g>
<g opacity="0.5">
<path d="M376.61 251.5L375.61 251.45C375.61 251.04 377.61 209.45 384.01 184.93C387.95 169.93 394.3 168.39 394.56 168.34L394.77 169.34C394.71 169.34 388.77 170.87 384.98 185.22C378.58 209.64 376.62 251.08 376.61 251.5Z" fill="white"/>
</g>
<path d="M370.89 251.47C370.89 251.47 367.1 252.07 357.57 253.68C354.39 254.22 351.28 254.73 348.57 255.16C345.927 255.581 343.522 256.932 341.786 258.968C340.05 261.005 339.098 263.594 339.1 266.27C339.099 267.748 339.389 269.212 339.953 270.578C340.518 271.944 341.347 273.186 342.391 274.231C343.436 275.277 344.677 276.107 346.042 276.673C347.408 277.239 348.872 277.53 350.35 277.53H427.59C431.398 277.555 435.108 276.326 438.148 274.033C441.188 271.739 443.389 268.509 444.41 264.84C445.494 260.471 445.908 255.963 445.64 251.47H370.89Z" fill="black"/>
<g opacity="0.5">
<path d="M370.89 251.47C370.89 251.47 367.1 252.07 357.57 253.68C354.39 254.22 351.28 254.73 348.57 255.16C345.927 255.581 343.522 256.932 341.786 258.968C340.05 261.005 339.098 263.594 339.1 266.27C339.099 267.748 339.389 269.212 339.953 270.578C340.518 271.944 341.347 273.186 342.391 274.231C343.436 275.277 344.677 276.107 346.042 276.673C347.408 277.239 348.872 277.53 350.35 277.53H427.59C431.398 277.555 435.108 276.326 438.148 274.033C441.188 271.739 443.389 268.509 444.41 264.84C445.494 260.471 445.908 255.963 445.64 251.47H370.89Z" fill="white"/>
</g>
<path d="M410.88 278.38H405.28V357.92H410.88V278.38Z" fill="black"/>
<g opacity="0.5">
<path d="M410.88 278.38H405.28V357.92H410.88V278.38Z" fill="white"/>
</g>
<path d="M447.42 359.13H451.9V356.86C451.9 352.882 450.32 349.066 447.507 346.253C444.694 343.44 440.878 341.86 436.9 341.86H413.26V346.34H436.89C439.683 346.345 442.36 347.458 444.334 349.434C446.307 351.409 447.417 354.087 447.42 356.88V359.13Z" fill="black"/>
<g opacity="0.6">
<path d="M447.42 359.13H451.9V356.86C451.9 352.882 450.32 349.066 447.507 346.253C444.694 343.44 440.878 341.86 436.9 341.86H413.26V346.34H436.89C439.683 346.345 442.36 347.458 444.334 349.434C446.307 351.409 447.417 354.087 447.42 356.88V359.13Z" fill="white"/>
</g>
<path d="M455.062 368.946C458.045 365.963 458.045 361.125 455.062 358.142C452.078 355.158 447.241 355.158 444.257 358.142C441.273 361.125 441.273 365.963 444.257 368.946C447.241 371.93 452.078 371.93 455.062 368.946Z" fill="black"/>
<g opacity="0.4">
<path d="M455.062 368.946C458.045 365.963 458.045 361.125 455.062 358.142C452.078 355.158 447.241 355.158 444.257 358.142C441.273 361.125 441.273 365.963 444.257 368.946C447.241 371.93 452.078 371.93 455.062 368.946Z" fill="white"/>
</g>
<g opacity="0.5">
<path d="M445.81 363.54C445.81 364.301 446.036 365.046 446.459 365.679C446.882 366.312 447.483 366.806 448.187 367.097C448.89 367.388 449.664 367.465 450.411 367.316C451.158 367.167 451.844 366.801 452.382 366.262C452.921 365.724 453.287 365.038 453.436 364.291C453.585 363.544 453.508 362.77 453.217 362.067C452.925 361.363 452.432 360.762 451.799 360.339C451.166 359.916 450.421 359.69 449.66 359.69C449.154 359.69 448.654 359.79 448.187 359.983C447.72 360.177 447.295 360.46 446.938 360.818C446.58 361.175 446.296 361.6 446.103 362.067C445.91 362.534 445.81 363.034 445.81 363.54Z" fill="white"/>
</g>
<path d="M409.309 371.082C413.473 370.405 416.3 366.479 415.623 362.314C414.945 358.15 411.02 355.323 406.855 356C402.69 356.678 399.864 360.603 400.541 364.768C401.219 368.933 405.144 371.76 409.309 371.082Z" fill="black"/>
<g opacity="0.4">
<path d="M409.309 371.082C413.473 370.405 416.3 366.479 415.623 362.314C414.945 358.15 411.02 355.323 406.855 356C402.69 356.678 399.864 360.603 400.541 364.768C401.219 368.933 405.144 371.76 409.309 371.082Z" fill="white"/>
</g>
<g opacity="0.5">
<path d="M408.08 367.39C410.206 367.39 411.93 365.666 411.93 363.54C411.93 361.414 410.206 359.69 408.08 359.69C405.954 359.69 404.23 361.414 404.23 363.54C404.23 365.666 405.954 367.39 408.08 367.39Z" fill="white"/>
</g>
<path d="M364.84 359.13H369.32V356.86C369.323 354.067 370.433 351.389 372.406 349.414C374.38 347.438 377.057 346.325 379.85 346.32H403.48V341.84H379.85C375.872 341.84 372.056 343.42 369.243 346.233C366.43 349.046 364.85 352.862 364.85 356.84L364.84 359.13Z" fill="black"/>
<g opacity="0.6">
<path d="M364.84 359.13H369.32V356.86C369.323 354.067 370.433 351.389 372.406 349.414C374.38 347.438 377.057 346.325 379.85 346.32H403.48V341.84H379.85C375.872 341.84 372.056 343.42 369.243 346.233C366.43 349.046 364.85 352.862 364.85 356.84L364.84 359.13Z" fill="white"/>
</g>
<path d="M374.526 365.321C375.499 361.216 372.959 357.098 368.853 356.126C364.747 355.153 360.63 357.693 359.658 361.798C358.685 365.904 361.224 370.021 365.33 370.994C369.436 371.967 373.553 369.427 374.526 365.321Z" fill="black"/>
<g opacity="0.4">
<path d="M374.526 365.321C375.499 361.216 372.959 357.098 368.853 356.126C364.747 355.153 360.63 357.693 359.658 361.798C358.685 365.904 361.224 370.021 365.33 370.994C369.436 371.967 373.553 369.427 374.526 365.321Z" fill="white"/>
</g>
<g opacity="0.5">
<path d="M367.08 367.39C369.206 367.39 370.93 365.666 370.93 363.54C370.93 361.414 369.206 359.69 367.08 359.69C364.954 359.69 363.23 361.414 363.23 363.54C363.23 365.666 364.954 367.39 367.08 367.39Z" fill="white"/>
</g>
<path d="M413.26 337.05H402.9V352.24H413.26V337.05Z" fill="black"/>
<g opacity="0.6">
<path d="M413.26 337.05H402.9V352.24H413.26V337.05Z" fill="white"/>
</g>
<path d="M413.26 277.53H402.9V292.72H413.26V277.53Z" fill="black"/>
<g opacity="0.6">
<path d="M413.26 277.53H402.9V292.72H413.26V277.53Z" fill="white"/>
</g>
<path d="M357.93 341.83L359.98 352.23H351.5L346.7 343.03L357.93 341.83Z" fill="#B55B52"/>
<path d="M360 350.49C360.31 353.01 351.92 350.92 351.06 352.23C350.2 353.54 349.06 357.92 347.77 360.13C346.48 362.34 339.09 369.44 339.09 369.44H354.83L357.21 366.01L357.99 369.44H362.34C362.34 369.44 360.67 352.26 360 350.49Z" fill="#263238"/>
<path d="M342.24 346.33H362.32L361.06 340.16H340.98L342.24 346.33Z" fill="#263238"/>
<g opacity="0.3">
<path d="M342.24 346.33H362.32L361.06 340.16H340.98L342.24 346.33Z" fill="white"/>
</g>
</g>
<defs>
<clipPath id="clip0_8_2">
<rect width="500" height="378" fill="white"/>
</clipPath>
</defs>
</svg>
